<svg width="24" height="24" viewBox="0 0 24 24" fill="none" xmlns="http://www.w3.org/2000/svg">
<path fill-rule="evenodd" clip-rule="evenodd" d="M21.9564 9.41438C21.9564 8.64488 21.6507 7.90688 21.1066 7.36278C20.5625 6.81858 19.8245 6.51288 19.055 6.51288H4.85072C4.08122 6.51288 3.34322 6.81858 2.79902 7.36278C2.25492 7.90688 1.94922 8.64488 1.94922 9.41438V12.7057H21.9564V9.41438Z" stroke="#2C2927" stroke-miterlimit="1.5" stroke-linecap="round" stroke-linejoin="round"/>
<path fill-rule="evenodd" clip-rule="evenodd" d="M3.50924 19.2446C3.50924 20.847 4.80823 22.146 6.41069 22.1461C9.51094 22.1461 14.3967 22.1461 17.497 22.1461C19.0994 22.146 20.3984 20.847 20.3984 19.2446C20.3984 16.4699 20.3984 12.7053 20.3984 12.7053L3.50924 12.7053V19.2446Z" stroke="#2C2927" stroke-width="0.918877" stroke-miterlimit="1.5" stroke-linecap="round" stroke-linejoin="round"/>
<path d="M11.9531 6.51288V22.1463" stroke="#2C2927" stroke-miterlimit="1.5" stroke-linecap="round" stroke-linejoin="round"/>
<path d="M11.9524 6.513L9.68697 3.52397C9.35047 3.07999 8.85139 2.78792 8.29957 2.7119C7.74768 2.63594 7.18824 2.78228 6.74428 3.11877C5.81975 3.8195 5.63836 5.13698 6.33904 6.06146L6.68129 6.51301" stroke="#2C2927" stroke-width="0.997808" stroke-miterlimit="1.5" stroke-linecap="round" stroke-linejoin="round"/>
<path d="M11.9519 6.513L14.2173 3.52397C14.5538 3.07999 15.0529 2.78792 15.6047 2.7119C16.1566 2.63594 16.7161 2.78228 17.16 3.11877C18.0845 3.8195 18.2659 5.13698 17.5653 6.06146L17.223 6.51301" stroke="#2C2927" stroke-width="0.997808" stroke-miterlimit="1.5" stroke-linecap="round" stroke-linejoin="round"/>
</svg>
