<svg width="24" height="24" viewBox="0 0 24 24" fill="none" xmlns="http://www.w3.org/2000/svg">
<rect x="0.5" y="0.5" width="23" height="23" rx="11.5" stroke="#2C2927"/>
<path d="M10.9657 18.0994V9.37216H13.0225V18.0994H10.9657ZM11.9998 8.13353C11.6741 8.13353 11.3938 8.02557 11.1589 7.80966C10.9241 7.58997 10.8066 7.32671 10.8066 7.01989C10.8066 6.70929 10.9241 6.44603 11.1589 6.23012C11.3938 6.01042 11.6741 5.90057 11.9998 5.90057C12.3294 5.90057 12.6097 6.01042 12.8407 6.23012C13.0756 6.44603 13.193 6.70929 13.193 7.01989C13.193 7.32671 13.0756 7.58997 12.8407 7.80966C12.6097 8.02557 12.3294 8.13353 11.9998 8.13353Z" fill="#2C2927"/>
</svg>
