<svg width="32" height="32" viewBox="0 0 32 32" fill="none" xmlns="http://www.w3.org/2000/svg">
<path d="M16 3C13.3488 3.00307 10.807 4.08025 8.93225 5.9952C7.05754 7.91016 6.00301 10.5065 6 13.2147C6 21.9552 15.0909 28.5599 15.4773 28.8385C15.6321 28.9438 15.814 29 16 29C16.186 29 16.3679 28.9438 16.5227 28.8385C16.9091 28.5599 26 21.9552 26 13.2147C25.997 10.5065 24.9425 7.91016 23.0677 5.9952C21.193 4.08025 18.6512 3.00307 16 3ZM16 9.50025C16.7192 9.50025 17.4223 9.7181 18.0203 10.1262C18.6183 10.5344 19.0843 11.1145 19.3596 11.7932C19.6348 12.472 19.7068 13.2188 19.5665 13.9393C19.4262 14.6599 19.0799 15.3217 18.5713 15.8412C18.0627 16.3607 17.4148 16.7144 16.7094 16.8577C16.004 17.0011 15.2729 16.9275 14.6084 16.6464C13.944 16.3652 13.376 15.8891 12.9765 15.2783C12.5769 14.6675 12.3636 13.9493 12.3636 13.2147C12.3636 12.2296 12.7468 11.2848 13.4287 10.5882C14.1107 9.89159 15.0356 9.50025 16 9.50025Z" stroke="#2C2927"/>
</svg>
