<svg width="24" height="24" viewBox="0 0 24 24" fill="none" xmlns="http://www.w3.org/2000/svg">
<path d="M7.11328 9.71161H9.27858" stroke="#2C2927" stroke-miterlimit="1.5" stroke-linecap="round" stroke-linejoin="round"/>
<path d="M10.9023 9.71161H13.0676" stroke="#2C2927" stroke-miterlimit="1.5" stroke-linecap="round" stroke-linejoin="round"/>
<path d="M14.6914 9.71161H16.8567" stroke="#2C2927" stroke-miterlimit="1.5" stroke-linecap="round" stroke-linejoin="round"/>
<path fill-rule="evenodd" clip-rule="evenodd" d="M8.56711 16.9999L11.9851 21.2859L15.403 16.9999H19.2171C19.8546 16.9999 20.4659 16.7477 20.9167 16.2989C21.3674 15.85 21.6206 15.2412 21.6206 14.6064C21.6206 11.9502 21.6206 7.68874 21.6206 5.0324C21.6206 4.39765 21.3674 3.78889 20.9167 3.33996C20.4659 2.89113 19.8546 2.63898 19.2171 2.63898C15.5143 2.63898 8.45581 2.63898 4.75301 2.63898C4.11561 2.63898 3.50431 2.89113 3.05351 3.33996C2.60281 3.78889 2.34961 4.39765 2.34961 5.0324C2.34961 7.68874 2.34961 11.9502 2.34961 14.6064C2.34961 15.2412 2.60281 15.85 3.05351 16.2989C3.50431 16.7477 4.11561 16.9999 4.75301 16.9999H8.56711Z" stroke="#2C2927" stroke-miterlimit="1.5" stroke-linecap="round" stroke-linejoin="round"/>
</svg>
