<svg width="20" height="21" viewBox="0 0 20 21" fill="none" xmlns="http://www.w3.org/2000/svg">
<g clip-path="url(#clip0_390_7677)">
<path d="M9.99935 18.8334C5.39685 18.8334 1.66602 15.1025 1.66602 10.5C1.66602 5.89752 5.39685 2.16669 9.99935 2.16669C14.6018 2.16669 18.3327 5.89752 18.3327 10.5C18.3327 15.1025 14.6018 18.8334 9.99935 18.8334ZM9.16602 13V14.6667H10.8327V13H9.16602ZM10.8327 11.6292C11.5024 11.4273 12.0774 10.9916 12.4528 10.4015C12.8283 9.8113 12.9793 9.1059 12.8783 8.41374C12.7773 7.72159 12.4311 7.08872 11.9027 6.6304C11.3743 6.17208 10.6988 5.9188 9.99935 5.91669C9.32506 5.91664 8.67157 6.15015 8.15001 6.57751C7.62845 7.00488 7.27102 7.59971 7.13852 8.26085L8.77352 8.58835C8.81992 8.35621 8.93128 8.14202 9.09465 7.9707C9.25803 7.79938 9.46669 7.67797 9.69637 7.62061C9.92605 7.56324 10.1673 7.57228 10.392 7.64666C10.6168 7.72105 10.8158 7.85772 10.9659 8.04078C11.116 8.22384 11.211 8.44576 11.2399 8.68072C11.2688 8.91568 11.2304 9.15402 11.1292 9.36801C11.0279 9.58199 10.868 9.76282 10.668 9.88946C10.4679 10.0161 10.2361 10.0833 9.99935 10.0834C9.77833 10.0834 9.56637 10.1712 9.41009 10.3274C9.25381 10.4837 9.16602 10.6957 9.16602 10.9167V12.1667H10.8327V11.6292Z" fill="white"/>
</g>
<defs>
<clipPath id="clip0_390_7677">
<rect width="20" height="20" fill="white" transform="translate(0 0.5)"/>
</clipPath>
</defs>
</svg>
