<svg width="160" height="17" viewBox="0 0 160 17" fill="none" xmlns="http://www.w3.org/2000/svg">
<path d="M16.0126 0.906738L9.11452 16.1304H7.02234L0 0.906738H2.29935L8.09949 13.7369L13.734 0.906738H16.0126Z" fill="#2C2927"/>
<path d="M45.0675 16.1304H42.6645L40.883 12.3784H31.8928L30.1113 16.1304H27.7705L35.3521 0.906738H37.5687L45.0675 16.1304ZM39.9923 10.6319L36.4087 3.08464L32.7628 10.6319H39.9923Z" fill="#2C2927"/>
<path d="M73.6447 16.1304H70.931L65.9802 10.0281H58.9164V16.1304H56.8242V0.906738H66.7881C67.7687 0.906738 68.5419 0.985803 69.1081 1.14393C70.0888 1.41708 70.8482 1.9274 71.3868 2.67493C71.9254 3.42247 72.1947 4.32094 72.1947 5.37036C72.1947 7.29668 71.4075 8.59768 69.8332 9.27337C69.4051 9.44585 68.8734 9.5824 68.2381 9.68302L73.6447 16.1304ZM58.8957 8.23829H66.1252C66.6362 8.23829 67.0505 8.22391 67.3681 8.19516C67.6996 8.16642 68.0724 8.06578 68.4867 7.89328C68.9148 7.70639 69.2532 7.44763 69.5017 7.117C69.8608 6.67135 70.0403 6.11789 70.0403 5.45661C70.0403 4.91034 69.916 4.41439 69.6675 3.96873C69.3913 3.45121 69.0322 3.11339 68.5902 2.95526C68.1623 2.79714 67.6098 2.71806 66.9331 2.71806H58.8957V8.23829Z" fill="#2C2927"/>
<path d="M103.176 8.71264C103.176 10.9552 102.395 12.8169 100.835 14.2975C99.2884 15.7782 97.1268 16.5186 94.3512 16.5186C91.6027 16.5186 89.421 15.8286 87.8053 14.4485C86.2034 13.0541 85.4023 11.1278 85.4023 8.66952C85.4023 7.34697 85.6441 6.16098 86.1273 5.11156C86.6106 4.04777 87.2598 3.19242 88.0745 2.54552C88.9032 1.88423 89.8422 1.38109 90.8918 1.03608C91.9418 0.691061 93.0533 0.518555 94.2273 0.518555C95.3451 0.518555 96.4223 0.683874 97.4588 1.01451C98.4943 1.33078 99.4403 1.81236 100.296 2.45926C101.166 3.09178 101.864 3.94713 102.389 5.0253C102.913 6.10348 103.176 7.33259 103.176 8.71264ZM101.084 8.49701C101.084 7.76385 100.959 7.05226 100.711 6.36224C100.476 5.6722 100.103 5.0253 99.5923 4.42153C99.0949 3.80337 98.384 3.30742 97.4588 2.93366C96.5335 2.5599 95.4555 2.373 94.2273 2.373C93.3156 2.373 92.4591 2.50238 91.6578 2.76114C90.871 3.00552 90.1601 3.37211 89.5246 3.86088C88.8893 4.34966 88.3853 4.99656 88.0124 5.80158C87.6534 6.60662 87.4738 7.53384 87.4738 8.58326C87.4738 10.4664 88.0884 11.9471 89.3175 13.0253C90.5463 14.1034 92.2385 14.6425 94.3928 14.6425C95.5939 14.6425 96.6439 14.4701 97.5411 14.125C98.4392 13.7657 99.1365 13.2913 99.6339 12.7018C100.13 12.098 100.497 11.4512 100.731 10.7611C100.966 10.0568 101.084 9.30202 101.084 8.49701Z" fill="#2C2927"/>
<path d="M130.945 0.906738L124.047 16.1304H121.955L114.933 0.906738H117.233L123.033 13.7369L128.667 0.906738H130.945Z" fill="#2C2927"/>
<path d="M160 16.1304H157.597L155.815 12.3784H146.825L145.044 16.1304H142.703L150.285 0.906738H152.502L160 16.1304ZM154.925 10.6319L151.341 3.08464L147.696 10.6319H154.925Z" fill="#2C2927"/>
</svg>
