<svg width="55" height="21" viewBox="0 0 55 21" fill="none" xmlns="http://www.w3.org/2000/svg">
<path d="M9.37161 1.43364C9.75566 1.43364 10.0655 1.11728 10.0655 0.72512C10.0655 0.332963 9.75566 0.0166016 9.37161 0.0166016C8.98756 0.0166016 8.67773 0.332963 8.67773 0.72512C8.67773 1.11728 8.98756 1.43364 9.37161 1.43364Z" fill="#2C2927"/>
<path d="M24.2768 12.1801H22.5566L24.8835 0.0166016L28.7337 8.80223L32.6227 0.0166016L34.714 12.1801H32.9938L31.8675 5.36509L28.6498 12.2921L25.4548 5.35191L24.28 12.1801H24.2768Z" fill="#2C2927"/>
<path d="M35.6074 0.131942H37.4405L40.3613 7.70485L43.3465 0.0166016L46.2318 7.70485L49.2525 0.141828H51.0857L46.1317 12.1768L43.2465 4.16226L40.3258 12.1768L35.6074 0.131942Z" fill="#2C2927"/>
<path d="M53.3027 0.0166016H55.0003V12.1801H53.3027V0.0166016Z" fill="#2C2927"/>
<path fill-rule="evenodd" clip-rule="evenodd" d="M23.9439 19.0188C24.3537 19.0188 24.6248 18.8276 24.712 18.6761V18.9792H25.1089V15.4268H24.712V16.6395C24.5635 16.4879 24.3279 16.3857 23.9697 16.3857C23.2887 16.3857 22.7207 16.9295 22.7207 17.7138C22.7207 18.4981 23.2274 19.0155 23.9471 19.0155L23.9439 19.0188ZM24.712 17.1239V18.1488C24.6119 18.3498 24.3666 18.6299 23.9923 18.6299C23.4985 18.6299 23.137 18.2872 23.137 17.7072C23.137 17.1272 23.5469 16.7713 24.0149 16.7713C24.3376 16.7713 24.5603 16.8965 24.7087 17.1239H24.712Z" fill="#2C2927"/>
<path fill-rule="evenodd" clip-rule="evenodd" d="M26.3205 15.6165C26.3205 15.4781 26.2075 15.376 26.072 15.376C25.9235 15.376 25.8105 15.4781 25.8105 15.6165C25.8105 15.7681 25.9235 15.8703 26.072 15.8703C26.2075 15.8703 26.3205 15.7681 26.3205 15.6165ZM26.2591 16.4371H25.8622V18.9779H26.2591V16.4371Z" fill="#2C2927"/>
<path fill-rule="evenodd" clip-rule="evenodd" d="M28.1511 19.995C28.7836 19.995 29.2645 19.6424 29.2645 18.7823V16.4293H28.8546V16.6567C28.7417 16.5183 28.4835 16.3799 28.1123 16.3799C27.4314 16.3799 26.873 16.8742 26.873 17.6948C26.873 18.5153 27.3668 19.0096 28.1123 19.0096C28.5319 19.0096 28.7062 18.8844 28.8675 18.6933V18.8449C28.8675 19.3128 28.619 19.5896 28.1382 19.5896C27.7412 19.5896 27.5056 19.3985 27.4088 19.2107L27.0506 19.3754C27.1861 19.7544 27.6089 19.995 28.1511 19.995ZM28.8708 17.1378V18.1627C28.7836 18.4033 28.5351 18.6438 28.1769 18.6307C27.6444 18.6307 27.2991 18.2879 27.2991 17.7079C27.2991 17.1279 27.7089 16.772 28.1769 16.772C28.5125 16.772 28.7578 16.9368 28.8708 17.1378Z" fill="#2C2927"/>
<path fill-rule="evenodd" clip-rule="evenodd" d="M30.4806 15.6165C30.4806 15.4781 30.3677 15.376 30.2321 15.376C30.0837 15.376 29.9707 15.4781 29.9707 15.6165C29.9707 15.7681 30.0837 15.8703 30.2321 15.8703C30.3677 15.8703 30.4806 15.7681 30.4806 15.6165ZM30.4193 16.4371H30.0223V18.9779H30.4193V16.4371Z" fill="#2C2927"/>
<path d="M30.9153 16.4399H31.4349V15.7939H31.8319V16.4399H32.6871V16.832H31.8319V17.9459C31.8319 18.4501 31.9674 18.6148 32.2644 18.6148C32.4386 18.6148 32.5742 18.539 32.7097 18.4369L32.8937 18.7401C32.7452 18.9048 32.4967 19.007 32.1869 19.007C31.7028 19.007 31.4317 18.6775 31.4317 18.0447V16.832H30.9121V16.4399H30.9153Z" fill="#2C2927"/>
<path fill-rule="evenodd" clip-rule="evenodd" d="M34.283 16.3754C33.9248 16.3754 33.5278 16.527 33.2922 16.7412L33.4891 17.0443C33.7247 16.8664 33.9474 16.7675 34.2314 16.7675C34.751 16.7675 34.8994 17.0707 34.8994 17.5255C34.7768 17.4892 34.5025 17.4497 34.3185 17.4497C33.602 17.4497 33.1309 17.6771 33.1309 18.234C33.1309 18.7019 33.4891 19.0051 34.0345 19.0051C34.467 19.0051 34.7542 18.814 34.9027 18.5998V18.9788H35.2996V17.397C35.2996 16.751 34.9543 16.3721 34.283 16.3721V16.3754ZM34.9027 17.8913V18.145C34.8155 18.346 34.5444 18.6393 34.1216 18.6393C33.786 18.6393 33.5536 18.4877 33.5536 18.2208C33.5536 17.9176 33.8635 17.8155 34.3701 17.8155C34.567 17.8155 34.78 17.8517 34.9027 17.8913Z" fill="#2C2927"/>
<path d="M36.0137 15.415H36.4106V18.9807H36.0137V15.415Z" fill="#2C2927"/>
<path fill-rule="evenodd" clip-rule="evenodd" d="M39.6815 16.3754C39.3232 16.3754 38.9263 16.527 38.6907 16.7412L38.8875 17.0443C39.1231 16.8664 39.3458 16.7675 39.6298 16.7675C40.1494 16.7675 40.2979 17.0707 40.2979 17.5255C40.1752 17.4892 39.9009 17.4497 39.717 17.4497C39.0005 17.4497 38.5293 17.6771 38.5293 18.234C38.5293 18.7019 38.8875 19.0051 39.4329 19.0051C39.8654 19.0051 40.1494 18.814 40.2979 18.5998V18.9788H40.6948V17.397C40.6948 16.751 40.3495 16.3721 39.6782 16.3721L39.6815 16.3754ZM40.3011 17.8913V18.145C40.214 18.346 39.9429 18.6393 39.5201 18.6393C39.1877 18.6393 38.9521 18.4877 38.9521 18.2208C38.9521 17.9176 39.2619 17.8155 39.7686 17.8155C39.9655 17.8155 40.1785 17.8517 40.3011 17.8913Z" fill="#2C2927"/>
<path fill-rule="evenodd" clip-rule="evenodd" d="M42.5143 19.995C43.1469 19.995 43.6278 19.6424 43.6278 18.7823V16.4293H43.2179V16.6567C43.1049 16.5183 42.8468 16.3799 42.4756 16.3799C41.7947 16.3799 41.2363 16.8742 41.2363 17.6948C41.2363 18.5153 41.7333 19.0096 42.4756 19.0096C42.8952 19.0096 43.0694 18.8844 43.2308 18.6933V18.8449C43.2308 19.3128 42.9823 19.5896 42.5014 19.5896C42.1045 19.5896 41.8689 19.3985 41.7721 19.2107L41.4138 19.3754C41.5494 19.7544 41.9722 19.995 42.5143 19.995ZM43.2211 17.1378V18.1627C43.1469 18.4033 42.8984 18.6438 42.5273 18.6307C41.9947 18.6307 41.6494 18.2879 41.6494 17.7079C41.6494 17.1279 42.0593 16.772 42.5273 16.772C42.8629 16.772 43.1082 16.9368 43.2211 17.1378Z" fill="#2C2927"/>
<path fill-rule="evenodd" clip-rule="evenodd" d="M45.512 19.0306C45.9218 19.0306 46.2672 18.8527 46.5028 18.5001L46.2413 18.2595C46.0929 18.4737 45.8218 18.6385 45.5217 18.6385C45.015 18.6385 44.6438 18.3617 44.618 17.841H46.5738C46.5996 17.7256 46.5996 17.6268 46.5996 17.5378C46.5996 16.8293 46.1026 16.3877 45.4474 16.3877C44.618 16.3877 44.1855 16.9677 44.1855 17.7158C44.1855 18.5133 44.7181 19.0306 45.512 19.0306ZM46.18 17.4752H44.6083C44.6696 17.0567 44.9666 16.7535 45.4248 16.7667C45.8702 16.7667 46.1542 17.0204 46.18 17.4752Z" fill="#2C2927"/>
<path d="M47.1582 16.441H47.5552V16.7706C47.7165 16.5168 48.0522 16.3916 48.4104 16.3916C49.0559 16.3916 49.4141 16.7343 49.4141 17.5417V18.9818H49.0171V17.5911C49.0171 17.0342 48.7815 16.7805 48.2878 16.7805C47.9779 16.7805 47.6939 16.9815 47.5584 17.2978V18.9785H47.1614V16.4377L47.1582 16.441Z" fill="#2C2927"/>
<path d="M52.3085 18.4527C52.1245 18.8185 51.6759 19.0228 51.2822 19.0228C50.4883 19.0228 49.959 18.5054 49.959 17.7079C49.959 16.9632 50.4786 16.3799 51.2596 16.3799C51.705 16.3799 52.1019 16.5809 52.2633 16.8973L51.9535 17.1115C51.7792 16.8709 51.5694 16.7687 51.2596 16.7687C50.7529 16.7687 50.3689 17.1609 50.3689 17.7046C50.3689 18.2484 50.74 18.6406 51.3112 18.6406C51.6081 18.6406 51.8566 18.489 52.0051 18.2484L52.3149 18.4494L52.3085 18.4527Z" fill="#2C2927"/>
<path d="M52.9426 19.5881C52.9781 19.6012 53.0039 19.6144 53.0426 19.6144C53.2266 19.6144 53.3525 19.4892 53.5267 19.0839L53.601 18.8927L52.4004 16.4541H52.8716L53.8011 18.3753L54.5078 16.4541H54.9403L53.9979 18.9586C53.6623 19.8187 53.4041 20.0198 53.0555 20.0198C52.9555 20.0198 52.8587 19.9934 52.7844 19.9571L52.9458 19.5914L52.9426 19.5881Z" fill="#2C2927"/>
<path d="M15.4269 12.166H18.1378L18.7575 11.1048H14.7072L12.9354 16.137L11.8091 14.0641L9.88881 17.643V2.3291H8.84961V19.8641H9.88881L11.8091 16.1205L12.9967 18.6613L13.2807 17.8901L13.5292 17.2344" fill="#2C2927"/>
<path d="M3.32864 10.0272H0.604783L-0.00195312 11.0884H4.04833L5.82013 6.04306L6.93356 8.12907L8.85382 4.55023V19.8608H9.90592V2.3291H8.85382L6.94647 6.07272L5.75881 3.53194L5.47481 4.30307H5.4619L5.22631 4.94897V4.96215" fill="#2C2927"/>
</svg>
