<svg width="127" height="14" viewBox="0 0 127 14" fill="none" xmlns="http://www.w3.org/2000/svg">
<path d="M13.417 1L7.81671 14H6.11815L0.416992 1H2.28375L6.99265 11.9561L11.5671 1H13.417Z" fill="#2C2927"/>
<path d="M36.8176 13.9691H34.831L33.3581 10.7804H25.9257L24.4528 13.9691H22.5176L28.7856 1.03101H30.6181L36.8176 13.9691ZM32.6218 9.29605L29.6591 2.88193L26.6449 9.29605H32.6218Z" fill="#2C2927"/>
<path d="M58.9172 13.9691H56.6102L52.4012 8.7829H46.3959V13.9691H44.6172V1.03101H53.088C53.9217 1.03101 54.5791 1.0982 55.0604 1.23259C55.8941 1.46472 56.5398 1.89843 56.9976 2.53373C57.4555 3.16904 57.6845 3.93262 57.6845 4.82448C57.6845 6.4616 57.0153 7.56727 55.6768 8.14152C55.3129 8.2881 54.8609 8.40415 54.3208 8.48966L58.9172 13.9691ZM46.3783 7.26183H52.5245C52.9589 7.26183 53.3111 7.24961 53.5811 7.22518C53.8629 7.20076 54.1799 7.11523 54.5321 6.96862C54.8961 6.8098 55.1837 6.58988 55.395 6.30889C55.7004 5.93015 55.8529 5.45978 55.8529 4.89778C55.8529 4.43353 55.7473 4.01204 55.536 3.63329C55.3011 3.19347 54.9959 2.90636 54.6201 2.77197C54.2563 2.63759 53.7867 2.57039 53.2113 2.57039H46.3783V7.26183Z" fill="#2C2927"/>
<path d="M82.3172 7.65661C82.3172 9.46627 81.6607 10.9686 80.3484 12.1634C79.0475 13.3582 77.2293 13.9557 74.8945 13.9557C72.5826 13.9557 70.7475 13.3989 69.3884 12.2852C68.041 11.16 67.3672 9.60552 67.3672 7.62181C67.3672 6.55457 67.5705 5.59752 67.977 4.75068C68.3836 3.89225 68.9296 3.20201 69.6149 2.67999C70.3119 2.14636 71.1018 1.74035 71.9846 1.46193C72.8679 1.18352 73.8028 1.04431 74.7903 1.04431C75.7306 1.04431 76.6366 1.17772 77.5085 1.44453C78.3795 1.69974 79.1753 2.08836 79.895 2.61038C80.6268 3.1208 81.2141 3.81104 81.6553 4.68108C82.0966 5.55112 82.3172 6.54297 82.3172 7.65661ZM80.5576 7.48261C80.5576 6.89098 80.4526 6.31675 80.2441 5.75993C80.0463 5.2031 79.7329 4.68108 79.3031 4.19386C78.8847 3.69503 78.2867 3.29481 77.5085 2.9932C76.7302 2.69159 75.8234 2.54078 74.7903 2.54078C74.0235 2.54078 73.303 2.64518 72.629 2.85399C71.9671 3.0512 71.3692 3.34702 70.8346 3.74143C70.3003 4.13586 69.8763 4.65788 69.5626 5.3075C69.2607 5.95713 69.1096 6.70536 69.1096 7.55221C69.1096 9.07186 69.6265 10.2667 70.6604 11.1367C71.694 12.0068 73.1174 12.4418 74.9295 12.4418C75.9398 12.4418 76.823 12.3026 77.5777 12.0242C78.3331 11.7343 78.9197 11.3514 79.3381 10.8757C79.7557 10.3885 80.0638 9.86654 80.2609 9.30966C80.4587 8.74129 80.5576 8.13222 80.5576 7.48261Z" fill="#2C2927"/>
<path d="M104.418 1.01624L98.5374 13.9837H96.7541L90.7676 1.01624H92.7282L97.6724 11.9449L102.476 1.01624H104.418Z" fill="#2C2927"/>
<path d="M126.517 13.9837H124.621L123.215 10.7878H116.12L114.714 13.9837H112.867L118.85 1.01624H120.6L126.517 13.9837ZM122.512 9.30007L119.684 2.87136L116.807 9.30007H122.512Z" fill="#2C2927"/>
</svg>
