<svg width="195" height="21" viewBox="0 0 195 21" fill="none" xmlns="http://www.w3.org/2000/svg">
<path d="M20.5264 0.5L11.9106 20.5H9.29738L0.526367 0.5H3.3983L10.6428 17.3555L17.6804 0.5H20.5264Z" fill="#2C2927"/>
<path d="M56.5264 20.4524H53.4701L51.2041 15.5467H39.7696L37.5036 20.4524H34.5264L44.1694 0.547619H46.9887L56.5264 20.4524ZM50.0713 13.2631L45.5133 3.39519L40.8761 13.2631H50.0713Z" fill="#2C2927"/>
<path d="M90.5264 20.4524H86.9771L80.5017 12.4736H71.2628V20.4524H68.5264V0.547619H81.5584C82.841 0.547619 83.8524 0.650994 84.5929 0.857749C85.8755 1.21488 86.8688 1.88212 87.5732 2.85951C88.2776 3.8369 88.6299 5.01163 88.6299 6.38374C88.6299 8.90238 87.6003 10.6034 85.5412 11.4869C84.9813 11.7124 84.2859 11.8909 83.455 12.0225L90.5264 20.4524ZM71.2357 10.1335H80.6915C81.3598 10.1335 81.9016 10.1147 82.317 10.0771C82.7506 10.0395 83.2382 9.90796 83.7801 9.68241C84.3401 9.43806 84.7826 9.09974 85.1077 8.66744C85.5774 8.08476 85.8121 7.36112 85.8121 6.49651C85.8121 5.78227 85.6496 5.13382 85.3245 4.55113C84.9632 3.87448 84.4936 3.43278 83.9155 3.22603C83.3558 3.01928 82.6332 2.9159 81.7481 2.9159H71.2357V10.1335Z" fill="#2C2927"/>
<path d="M126.526 10.741C126.526 13.525 125.516 15.8363 123.497 17.6744C121.496 19.5127 118.699 20.4318 115.107 20.4318C111.55 20.4318 108.727 19.5752 106.636 17.8619C104.563 16.1308 103.526 13.7393 103.526 10.6874C103.526 9.0455 103.839 7.57312 104.465 6.27029C105.09 4.94962 105.93 3.88772 106.984 3.08461C108.057 2.26364 109.272 1.639 110.63 1.21067C111.989 0.782345 113.427 0.568182 114.947 0.568182C116.393 0.568182 117.787 0.773422 119.128 1.1839C120.468 1.57654 121.693 2.17441 122.8 2.97752C123.926 3.76278 124.829 4.82469 125.508 6.1632C126.187 7.50173 126.526 9.02765 126.526 10.741ZM123.819 10.4733C123.819 9.56306 123.658 8.67963 123.337 7.82298C123.033 6.96632 122.551 6.1632 121.889 5.41364C121.246 4.64621 120.326 4.03049 119.128 3.56648C117.931 3.10246 116.536 2.87044 114.947 2.87044C113.767 2.87044 112.658 3.03106 111.621 3.35231C110.603 3.6557 109.683 4.1108 108.861 4.7176C108.039 5.32441 107.387 6.12752 106.904 7.12694C106.439 8.12637 106.207 9.27749 106.207 10.5803C106.207 12.9183 107.002 14.7565 108.593 16.095C110.183 17.4335 112.373 18.1028 115.161 18.1028C116.715 18.1028 118.074 17.8887 119.235 17.4603C120.397 17.0142 121.299 16.4253 121.943 15.6934C122.586 14.9438 123.06 14.1408 123.363 13.2841C123.667 12.4097 123.819 11.4727 123.819 10.4733Z" fill="#2C2927"/>
<path d="M160.526 0.525L151.48 20.475H148.736L139.526 0.525H142.543L150.149 17.3384L157.539 0.525H160.526Z" fill="#2C2927"/>
<path d="M194.526 20.475H191.609L189.446 15.5581H178.531L176.368 20.475H173.526L182.731 0.525H185.423L194.526 20.475ZM188.365 13.2694L184.014 3.37904L179.588 13.2694H188.365Z" fill="#2C2927"/>
</svg>
