<svg width="764" height="1171" viewBox="0 0 764 1171" fill="none" xmlns="http://www.w3.org/2000/svg">
<mask id="mask0_2003_11317" style="mask-type:alpha" maskUnits="userSpaceOnUse" x="0" y="0" width="764" height="1171">
<rect width="764" height="1171" fill="#D9D9D9"/>
</mask>
<g mask="url(#mask0_2003_11317)">
<path opacity="0.5" fill-rule="evenodd" clip-rule="evenodd" d="M609.014 614.868L605.293 612.334L606.603 608.18C612.347 589.859 614.848 570.706 614.009 551.246C612.86 524.504 603.229 492.65 588.32 467.964C571.209 439.645 529.514 409.982 499.161 405.414C466.994 400.537 437.63 406.99 411.921 424.564C406.892 428.002 401.954 431.919 397.287 436.176L389.396 443.367L387.743 429.728C384.637 402.893 375.562 375.006 362.958 349.194C348.063 318.695 331.713 296.784 309.644 272.28C263.532 221.083 240.896 190.022 202.881 127.868C152.229 58.7544 80.3339 8.82673 -2.0123 -0.0900762C-45.1234 -4.77476 -86.0184 5.0049 -120.263 28.229C-143.086 44.0669 -149.524 50.6802 -166.362 72.568C-171.155 78.8522 -175.482 85.1118 -179.572 91.6877C-203.691 130.361 -212.418 172.214 -205.498 216.117C-200.739 246.238 -182.914 286.957 -164.638 314.131C-157.109 325.175 -148.701 336.055 -139.65 346.434C-105.967 385.064 -45.0778 409.253 2.25578 413.169C16.237 414.308 60.5004 411.855 96.9423 386.944C107.19 379.94 116.067 371.637 123.334 362.281C159.988 315.081 169.064 256.024 148.225 200.224C127.454 144.608 79.3993 102.524 19.6742 87.6138C-13.169 79.4186 -43.6336 84.0538 -68.4575 101.023C-81.9779 110.266 -93.529 122.967 -102.758 138.759C-127.192 180.571 -123.18 236.366 -92.759 277.572C-58.7273 323.706 -3.81143 336.532 37.8073 308.082C40.6862 306.115 43.5142 303.931 46.2073 301.608C63.7544 286.459 73.0835 261.7 71.1546 235.422C69.4545 212.287 59.2452 192.09 43.1272 179.981C22.9645 164.832 -4.61119 162.69 -22.4246 174.865C-30.426 180.335 -35.6138 188.227 -37.4387 197.704C-38.6346 203.87 -41.3943 224.495 -26.9613 231.069C-20.7135 233.9 -15.2554 234.098 -11.5704 231.58C-8.45444 229.45 -6.46786 225.355 -5.80388 219.741C-5.04878 213.209 -1.85791 207.727 3.15959 204.297C7.22683 201.517 11.9039 200.512 15.6647 201.598C25.388 204.392 33.1975 212.948 36.6281 220.19C46.7458 241.559 39.5528 267.011 19.5091 280.713C12.1291 285.757 3.50793 288.789 -5.40464 289.428C-40.0504 291.991 -74.8996 263.086 -83.0801 224.998C-91.4727 185.861 -79.253 149.641 -51.1812 130.451C-32.8277 117.905 -9.12075 113.835 15.5894 118.986C81.0721 132.634 132.483 195.338 132.621 261.717C132.706 302.581 115.57 336.816 84.4181 358.131C65.6151 370.984 41.7777 379.005 15.4635 381.327C-45.8842 386.748 -97.0382 360.446 -140.957 300.889C-179.991 247.96 -186.756 188.241 -160.53 128.219C-146.383 95.8187 -126.988 71.0304 -102.878 54.5497C-79.2966 38.4295 -51.2901 30.3551 -19.6806 30.5789C43.0382 31.0529 100.115 54.2893 149.924 99.6843C198.013 143.52 229.074 219.281 227.23 288.206C226.151 328.47 213.346 384.328 158.483 421.833C151.631 426.516 144.208 430.817 136.416 434.639C133.768 435.949 131.073 437.08 128.371 438.114L127.578 438.425L126.731 438.46C104.831 439.331 84.4452 445.66 66.139 457.256C65.3805 457.733 64.6169 458.233 63.8654 458.747C43.9801 472.341 25.8438 497.356 15.319 525.67C5.94688 550.895 1.92032 586.905 9.56716 614.101C17.9638 643.875 68.6755 790.471 243.943 752.679L256.852 749.892L250.169 761.353C246.807 767.097 243.717 773.074 240.787 779.506C238.367 783.876 235.955 788.43 234.08 792.321C208.973 844.333 219.909 937.608 245.794 995.285C250.173 1005.06 254.942 1014.66 259.99 1023.85C297.051 1091.52 339.291 1120.85 371.946 1138.84C500.125 1209.38 675.87 1149.29 737.749 1025.71C804.139 893.13 733.214 699.659 609.017 614.859L609.014 614.868ZM144.199 539.038C138.488 539.349 132.638 541.446 127.251 545.129C124.056 547.314 121.15 549.948 118.622 552.971C98.5415 576.893 100.609 613.855 123.535 640.862C149.385 671.304 189.42 669.461 217.615 654.115C221.148 652.202 224.582 650.106 227.816 647.896C256.838 628.057 272.844 596.537 271.737 561.384C270.575 524.619 250.99 488.997 219.348 466.13C212.088 460.878 195.606 450.899 179.927 446.785L168.147 443.704L177.508 436.677C195.12 423.469 210.312 407.422 222.671 389.009L225.447 384.877L229.888 387.669C278.99 418.486 335.785 487.101 334.175 579.451L334.019 581.039L334.142 581.248L334.073 583.049C333.864 588.645 333.499 593.845 332.873 599.37C324.173 643.421 297.981 683.199 260.972 708.498C234.551 726.559 204.622 735.673 174.407 734.855C136.011 733.82 100.481 716.577 74.3588 686.302C45.7851 653.17 31.226 608.454 35.5057 566.126C42.3031 531.607 65.1982 499.828 83.288 487.463L84.8253 486.455C108.106 471.709 134.466 468.46 165.438 476.493C203.194 486.301 227.071 523.332 233.271 544.374C243.128 577.911 235.366 605.423 210.854 623.955C208.692 625.58 206.522 627.168 204.357 628.649C189.555 638.767 170.081 647.712 150.802 626.903C128.47 602.811 148.522 580.266 158.169 569.429C165.779 560.887 160.909 550.197 160.32 548.991C158.171 544.591 151.37 538.648 144.201 539.036L144.199 539.038ZM641.88 1084.05C542.216 1152.49 390.255 1154.61 300.058 1037.21C289.822 1020.57 279.865 1001.69 269.597 979.503C267.902 975.855 266.351 972.215 264.683 968.068C246.273 908.958 249.336 850.65 273.767 794.779C286.732 765.134 306.062 741.387 331.216 724.193C359.632 704.769 395.323 693.72 437.325 691.351C511.502 687.167 570.897 715.397 609.109 773.027C651.609 837.145 656.802 898.983 624.523 956.833C611.14 980.812 594.035 1000.04 573.635 1013.99C537.126 1038.95 492.772 1044.28 448.787 1029C379.328 1004.87 336.326 931.356 350.905 861.603C356.246 836.081 369.69 815.337 389.799 801.59C422.202 779.441 465.991 779.925 504.072 802.84C522.128 813.705 535.846 831.298 541.726 851.134C547.126 869.334 545.577 887.756 537.371 902.972C533.101 910.906 526.769 917.886 519.058 923.158C496.016 938.908 466.034 937.241 447.753 919.174C441.664 913.142 436.111 902.273 437.477 891.584C437.962 887.782 440.755 883.784 444.939 880.924C448.185 878.704 455.088 875.282 464.709 877.438C471.405 878.939 477.008 878.326 480.928 875.647C486.382 871.918 487.325 865.154 487.164 860.123C486.635 843.504 463.55 838.748 456.506 837.672C444.941 835.927 433.642 838.552 423.845 845.248C403.617 859.076 394.303 886.271 401.218 911.375C406.341 930.017 421.262 946.619 442.179 956.909C469.971 970.582 503.034 971.148 528.459 958.386C533.14 956.022 537.65 953.379 541.846 950.51C587.678 919.18 597.403 860.934 564.986 812.004C535.092 766.886 478.079 742.666 423.104 751.752C400.889 755.429 381.302 762.989 364.864 774.226C337.744 792.765 320.398 820.644 314.721 854.816C304.574 915.88 324.003 974.44 368.04 1015.49C417.458 1061.53 488.404 1076.91 557.821 1056.64C572.419 1052.38 586.463 1045.66 599.6 1036.68C639.529 1009.39 660.493 968.363 665.181 954.858C681.096 909.178 684.967 840.645 657.778 790.522C631.127 741.389 595.363 703.334 554.35 680.461L544.442 674.931L554.169 670.371C558.821 668.194 563.318 665.621 567.531 662.741C576.391 656.684 584.167 649.154 590.644 640.339L593.624 636.278L597.988 639.33C739.609 738.483 801.821 974.223 641.877 1084.05L641.88 1084.05ZM423.722 454.103C451.345 435.22 483.997 431.411 513.312 443.625C567.385 466.177 598.328 528.022 585.263 587.446C580.461 609.28 567.02 629.54 549.289 641.66C539.94 648.052 529.745 651.866 519.846 652.679C487.498 655.322 449.217 626.863 442.585 595.215C438.115 573.87 447.525 549.033 464.494 537.434C468.336 534.808 472.417 532.956 476.638 531.91C486.927 529.369 496.864 531.621 503.894 538.096C509.622 543.372 516.013 553.709 513.841 572.954C513.198 578.74 513.398 583.576 513.851 585.604C514.144 586.886 514.975 587.991 516.319 588.911C518.977 590.707 522.998 591.323 526.826 590.522C527.926 590.293 529.084 589.775 530.273 588.962C533.851 586.517 537.137 581.827 538.274 577.559C545.527 550.521 533.795 518.328 512.15 505.776C493.349 494.898 470.421 496.387 450.811 509.792C430.042 523.99 416.976 548.777 415.86 576.068C414.582 607.754 428.76 631.383 440.87 645.625L449.135 655.33L436.983 654.797C407.086 653.508 358.289 667.939 345.261 675.635L329.606 684.896L337.29 668.029C344.069 653.158 355.335 623.773 358.004 607.931C359.093 601.464 360.149 594.808 361.201 588.114C366.194 556.288 371.372 523.399 383.108 500.92C393.291 481.53 407.322 465.314 423.722 454.103ZM368.073 470.836L368.01 472.22L367.317 473.362C362.012 482.189 357.231 491.703 353.111 501.644L347.68 514.716L342.86 500.692C324.558 447.419 286.216 398.258 240.303 369.166L235.835 366.33L237.957 361.723C242.669 351.484 246.528 340.847 249.36 330.409C249.421 330.075 256.447 296.316 254.399 263.33L253.675 251.793L262.968 258.892C316.922 300.205 372.88 377.558 368.073 470.838L368.073 470.836Z" fill="#B7C0C5" fill-opacity="0.5"/>
</g>
</svg>
