<svg width="1056" height="470" viewBox="0 0 1056 470" fill="none" xmlns="http://www.w3.org/2000/svg">
<mask id="mask0_2002_11314" style="mask-type:alpha" maskUnits="userSpaceOnUse" x="0" y="0" width="1056" height="470">
<rect width="1056" height="470" fill="#D9D9D9"/>
</mask>
<g mask="url(#mask0_2002_11314)">
<path opacity="0.5" fill-rule="evenodd" clip-rule="evenodd" d="M557.961 818.518L560.496 814.797L564.649 816.108C582.97 821.851 602.123 824.353 621.584 823.513C648.326 822.364 680.18 812.734 704.865 797.824C733.185 780.713 762.847 739.018 767.416 708.665C772.292 676.498 765.84 647.134 748.266 621.426C744.828 616.396 740.91 611.458 736.653 606.791L729.462 598.9L743.101 597.247C769.937 594.141 797.824 585.067 823.635 572.462C854.135 557.568 876.046 541.218 900.55 519.148C951.747 473.036 982.808 450.4 1044.96 412.385C1114.08 361.733 1164 289.838 1172.92 207.492C1177.6 164.381 1167.82 123.486 1144.6 89.2409C1128.76 66.4184 1122.15 59.98 1100.26 43.1426C1093.98 38.3493 1087.72 34.0218 1081.14 29.9319C1042.47 5.81346 1000.62 -2.91332 956.713 4.00635C926.591 8.76515 885.873 26.5899 858.699 44.8662C847.655 52.3958 836.775 60.8032 826.395 69.8543C787.765 103.537 763.577 164.426 759.661 211.76C758.522 225.741 760.975 270.005 785.885 306.447C792.89 316.694 801.193 325.571 810.548 332.838C857.748 369.493 916.805 378.568 972.605 357.729C1028.22 336.958 1070.31 288.904 1085.22 229.178C1093.41 196.335 1088.78 165.871 1071.81 141.047C1062.56 127.526 1049.86 115.975 1034.07 106.746C992.259 82.3122 936.464 86.3241 895.258 116.745C849.123 150.777 836.297 205.693 864.747 247.312C866.715 250.191 868.899 253.018 871.222 255.712C886.37 273.259 911.13 282.588 937.408 280.659C960.543 278.959 980.74 268.749 992.849 252.632C1008 232.469 1010.14 204.893 997.964 187.08C992.494 179.078 984.602 173.89 975.125 172.066C968.96 170.87 948.335 168.11 941.76 182.543C938.93 188.791 938.732 194.249 941.25 197.934C943.38 201.05 947.475 203.036 953.089 203.7C959.62 204.455 965.103 207.646 968.533 212.664C971.312 216.731 972.318 221.408 971.231 225.169C968.438 234.892 959.881 242.702 952.64 246.132C931.271 256.25 905.818 249.057 892.117 229.013C887.073 221.633 884.041 213.012 883.402 204.1C880.838 169.454 909.743 134.605 947.832 126.424C986.969 118.032 1023.19 130.251 1042.38 158.323C1054.92 176.677 1058.99 200.384 1053.84 225.094C1040.2 290.576 977.491 341.987 911.112 342.125C870.249 342.211 836.014 325.074 814.699 293.922C801.846 275.119 793.825 251.282 791.502 224.968C786.082 163.62 812.384 112.466 871.941 68.5468C924.87 29.5128 984.588 22.7481 1044.61 48.9746C1077.01 63.1214 1101.8 82.5162 1118.28 106.626C1134.4 130.208 1142.47 158.214 1142.25 189.824C1141.78 252.542 1118.54 309.619 1073.15 359.429C1029.31 407.518 953.548 438.579 884.624 436.734C844.36 435.655 788.501 422.85 750.997 367.988C746.313 361.135 742.013 353.712 738.191 345.92C736.88 343.272 735.75 340.578 734.715 337.875L734.405 337.082L734.369 336.235C733.499 314.335 727.169 293.949 715.573 275.643C715.097 274.885 714.597 274.121 714.082 273.37C700.489 253.484 675.473 235.348 647.16 224.823C621.935 215.451 585.925 211.425 558.729 219.071C528.955 227.468 382.358 278.18 420.15 453.448L422.938 466.356L411.477 459.673C405.733 456.311 399.755 453.222 393.324 450.291C388.954 447.871 384.4 445.459 380.508 443.584C328.496 418.477 235.222 429.413 177.545 455.299C167.774 459.677 158.166 464.447 148.976 469.494C81.3072 506.555 51.9831 548.796 33.9865 581.45C-36.5535 709.629 23.5372 885.375 147.115 947.253C279.7 1013.64 473.171 942.718 557.97 818.521L557.961 818.518ZM633.791 353.703C633.481 347.992 631.384 342.143 627.7 336.755C625.516 333.56 622.881 330.654 619.858 328.126C595.937 308.046 558.975 310.114 531.968 333.04C501.526 358.889 503.369 398.925 518.715 427.12C520.628 430.653 522.723 434.086 524.933 437.32C544.773 466.343 576.293 482.348 611.446 481.241C648.211 480.079 683.833 460.494 706.7 428.853C711.952 421.592 721.93 405.11 726.045 389.432L729.125 377.651L736.152 387.012C749.36 404.625 765.407 419.816 783.821 432.175L787.952 434.951L785.16 439.392C754.344 488.494 685.729 545.289 593.379 543.679L591.791 543.523L591.581 543.646L589.781 543.578C584.185 543.368 578.985 543.003 573.46 542.378C529.408 533.678 489.631 507.486 464.331 470.476C446.271 444.055 437.157 414.127 437.975 383.911C439.01 345.516 456.252 309.985 486.528 283.863C519.66 255.289 564.376 240.73 606.703 245.01C641.223 251.807 673.001 274.702 685.367 292.792L686.375 294.33C701.121 317.61 704.37 343.97 696.336 374.942C686.529 412.698 649.497 436.575 628.456 442.775C594.919 452.632 567.407 444.871 548.875 420.358C547.25 418.196 545.661 416.027 544.181 413.862C534.063 399.059 525.118 379.586 545.927 360.306C570.019 337.974 592.564 358.026 603.4 367.674C611.943 375.283 622.632 370.413 623.839 369.824C628.239 367.675 634.182 360.874 633.793 353.705L633.791 353.703ZM88.7787 851.384C20.3444 751.72 18.2232 599.759 135.624 509.562C152.255 499.326 171.143 489.369 193.327 479.101C196.975 477.407 200.615 475.856 204.761 474.187C263.871 455.777 322.179 458.84 378.051 483.271C407.696 496.236 431.443 515.567 448.637 540.721C468.06 569.136 479.11 604.827 481.479 646.829C485.662 721.006 457.433 780.402 399.802 818.614C335.685 861.113 273.846 866.306 215.997 834.027C192.018 820.644 172.785 803.539 158.839 783.14C133.883 746.63 128.549 702.277 143.831 658.291C167.963 588.832 241.473 545.831 311.227 560.409C336.749 565.75 357.492 579.194 371.239 599.304C393.389 631.707 392.905 675.496 369.99 713.576C359.125 731.633 341.531 745.351 321.695 751.231C303.496 756.631 285.074 755.082 269.857 746.875C261.923 742.605 254.943 736.273 249.671 728.562C233.921 705.521 235.588 675.538 253.655 657.257C259.687 651.169 270.557 645.616 281.246 646.981C285.048 647.467 289.045 650.259 291.906 654.444C294.126 657.69 297.548 664.592 295.391 674.213C293.891 680.909 294.503 686.512 297.183 690.433C300.912 695.886 307.676 696.829 312.706 696.669C329.326 696.139 334.082 673.055 335.158 666.01C336.903 654.445 334.278 643.146 327.582 633.349C313.754 613.121 286.559 603.807 261.454 610.723C242.812 615.845 226.211 630.767 215.92 651.683C202.248 679.475 201.682 712.539 214.443 737.964C216.808 742.644 219.451 747.154 222.319 751.351C253.65 797.182 311.896 806.907 360.826 774.49C405.943 744.596 430.163 687.583 421.077 632.608C417.401 610.393 409.841 590.807 398.603 574.368C380.065 547.248 352.186 529.902 318.014 524.225C256.95 514.078 198.39 533.508 157.343 577.544C111.301 626.962 95.9173 697.908 116.192 767.325C120.448 781.923 127.165 795.968 136.145 809.104C163.44 849.034 204.466 869.998 217.971 874.686C263.652 890.6 332.184 894.471 382.307 867.283C431.44 840.632 469.496 804.867 492.368 763.855L497.898 753.946L502.458 763.673C504.635 768.325 507.209 772.822 510.089 777.036C516.146 785.895 523.676 793.671 532.491 800.148L536.552 803.129L533.499 807.493C434.347 949.113 198.607 1011.33 88.7767 851.382L88.7787 851.384ZM718.727 633.226C737.61 660.85 741.418 693.501 729.204 722.816C706.652 776.889 644.808 807.832 585.383 794.768C563.549 789.966 543.289 776.525 531.169 758.793C524.778 749.444 520.964 739.25 520.151 729.35C517.508 697.003 545.966 658.722 577.615 652.089C598.96 647.619 623.797 657.03 635.396 673.999C638.022 677.84 639.873 681.921 640.92 686.143C643.461 696.432 641.208 706.368 634.733 713.398C629.457 719.126 619.12 725.517 599.876 723.345C594.09 722.702 589.254 722.902 587.226 723.355C585.944 723.649 584.839 724.479 583.919 725.823C582.122 728.481 581.506 732.503 582.307 736.33C582.537 737.431 583.055 738.588 583.868 739.778C586.313 743.355 591.003 746.641 595.271 747.778C622.308 755.031 654.502 743.299 667.053 721.654C677.932 702.853 676.442 679.925 663.037 660.315C648.84 639.546 624.052 626.481 596.762 625.365C565.075 624.087 541.447 638.265 527.205 650.375L517.5 658.639L518.032 646.488C519.322 616.59 504.891 567.793 497.194 554.765L487.933 539.11L504.8 546.794C519.672 553.573 549.057 564.839 564.899 567.508C571.366 568.597 578.022 569.654 584.715 570.705C616.542 575.699 649.431 580.876 671.909 592.612C691.299 602.795 707.516 616.826 718.727 633.226ZM701.993 577.578L700.61 577.514L699.468 576.821C690.641 571.517 681.127 566.735 671.186 562.615L658.113 557.184L672.138 552.364C725.411 534.062 774.571 495.72 803.664 449.808L806.499 445.339L811.107 447.462C821.346 452.174 831.983 456.032 842.42 458.864C842.755 458.925 876.514 465.952 909.5 463.904L921.037 463.18L913.938 472.473C872.625 526.426 795.272 582.384 701.991 577.578L701.993 577.578Z" fill="#CFC8C2" fill-opacity="0.45"/>
</g>
</svg>
