<svg width="764" height="708" viewBox="0 0 764 708" fill="none" xmlns="http://www.w3.org/2000/svg">
<mask id="mask0_2003_11317" style="mask-type:alpha" maskUnits="userSpaceOnUse" x="0" y="0" width="764" height="708">
<rect width="764" height="708" fill="#D9D9D9"/>
</mask>
<g mask="url(#mask0_2003_11317)">
<path opacity="0.5" fill-rule="evenodd" clip-rule="evenodd" d="M609.014 151.868L605.293 149.334L606.603 145.18C612.347 126.859 614.848 107.706 614.009 88.246C612.86 61.5041 603.229 29.6499 588.32 4.96448C571.209 -23.355 529.514 -53.0176 499.161 -57.586C466.994 -62.4629 437.63 -56.0103 411.921 -38.4362C406.892 -34.9981 401.954 -31.0806 397.287 -26.8239L389.396 -19.6328L387.743 -33.2716C384.637 -60.1071 375.562 -87.9941 362.958 -113.806C348.063 -144.305 331.713 -166.216 309.644 -190.72C263.532 -241.917 240.896 -272.978 202.881 -335.132C152.229 -404.246 80.3339 -454.173 -2.0123 -463.09C-45.1234 -467.775 -86.0184 -457.995 -120.263 -434.771C-143.086 -418.933 -149.524 -412.32 -166.362 -390.432C-171.155 -384.148 -175.482 -377.888 -179.572 -371.312C-203.691 -332.639 -212.418 -290.786 -205.498 -246.883C-200.739 -216.762 -182.914 -176.043 -164.638 -148.869C-157.109 -137.825 -148.701 -126.945 -139.65 -116.566C-105.967 -77.9355 -45.0778 -53.7469 2.25578 -49.8315C16.237 -48.6921 60.5004 -51.145 96.9423 -76.0558C107.19 -83.0602 116.067 -91.3632 123.334 -100.719C159.988 -147.919 169.064 -206.976 148.225 -262.776C127.454 -318.392 79.3993 -360.476 19.6742 -375.386C-13.169 -383.581 -43.6336 -378.946 -68.4575 -361.977C-81.9779 -352.734 -93.529 -340.033 -102.758 -324.241C-127.192 -282.429 -123.18 -226.634 -92.759 -185.428C-58.7273 -139.294 -3.81143 -126.468 37.8073 -154.918C40.6862 -156.885 43.5142 -159.069 46.2073 -161.392C63.7544 -176.541 73.0835 -201.3 71.1546 -227.578C69.4545 -250.713 59.2452 -270.91 43.1272 -283.019C22.9645 -298.168 -4.61119 -300.31 -22.4246 -288.135C-30.426 -282.665 -35.6138 -274.773 -37.4387 -265.296C-38.6346 -259.13 -41.3943 -238.505 -26.9613 -231.931C-20.7135 -229.1 -15.2554 -228.902 -11.5704 -231.42C-8.45444 -233.55 -6.46786 -237.645 -5.80388 -243.259C-5.04878 -249.791 -1.85791 -255.273 3.15959 -258.703C7.22683 -261.483 11.9039 -262.488 15.6647 -261.402C25.388 -258.608 33.1975 -250.052 36.6281 -242.81C46.7458 -221.441 39.5528 -195.989 19.5091 -182.287C12.1291 -177.243 3.50793 -174.211 -5.40464 -173.572C-40.0504 -171.009 -74.8996 -199.914 -83.0801 -238.002C-91.4727 -277.139 -79.253 -313.359 -51.1812 -332.549C-32.8277 -345.095 -9.12075 -349.165 15.5894 -344.014C81.0721 -330.366 132.483 -267.662 132.621 -201.283C132.706 -160.419 115.57 -126.184 84.4181 -104.869C65.6151 -92.016 41.7777 -83.9953 15.4635 -81.6729C-45.8842 -76.2523 -97.0382 -102.554 -140.957 -162.111C-179.991 -215.04 -186.756 -274.759 -160.53 -334.781C-146.383 -367.181 -126.988 -391.97 -102.878 -408.45C-79.2966 -424.57 -51.2901 -432.645 -19.6806 -432.421C43.0382 -431.947 100.115 -408.711 149.924 -363.316C198.013 -319.48 229.074 -243.719 227.23 -174.794C226.151 -134.53 213.346 -78.6716 158.483 -41.1671C151.631 -36.4837 144.208 -32.1833 136.416 -28.3609C133.768 -27.0508 131.073 -25.9199 128.371 -24.8858L127.578 -24.5752L126.731 -24.5396C104.831 -23.6692 84.4452 -17.3398 66.139 -5.74381C65.3805 -5.26697 64.6169 -4.76694 63.8654 -4.25288C43.9801 9.3408 25.8438 34.3562 15.319 62.6696C5.94688 87.8947 1.92032 123.905 9.56716 151.101C17.9638 180.875 68.6755 327.471 243.943 289.679L256.852 286.892L250.169 298.353C246.807 304.097 243.717 310.074 240.787 316.506C238.367 320.876 235.955 325.43 234.08 329.321C208.973 381.333 219.909 474.608 245.794 532.285C250.173 542.055 254.942 551.664 259.99 560.854C297.051 628.522 339.291 657.847 371.946 675.843C500.125 746.383 675.87 686.292 737.749 562.714C804.139 430.13 733.214 236.659 609.017 151.859L609.014 151.868ZM144.199 76.0381C138.488 76.3486 132.638 78.4458 127.251 82.1293C124.056 84.3139 121.15 86.9485 118.622 89.9714C98.5415 113.893 100.609 150.855 123.535 177.862C149.385 208.304 189.42 206.461 217.615 191.115C221.148 189.202 224.582 187.106 227.816 184.896C256.838 165.057 272.844 133.537 271.737 98.3838C270.575 61.619 250.99 25.9971 219.348 3.13001C212.088 -2.12228 195.606 -12.1008 179.927 -16.215L168.147 -19.2956L177.508 -26.3228C195.12 -39.5309 210.312 -55.5777 222.671 -73.991L225.447 -78.1227L229.888 -75.3306C278.99 -44.514 335.785 24.1009 334.175 116.451L334.019 118.039L334.142 118.248L334.073 120.049C333.864 125.645 333.499 130.845 332.873 136.37C324.173 180.421 297.981 220.199 260.972 245.498C234.551 263.559 204.622 272.673 174.407 271.855C136.011 270.82 100.481 253.577 74.3588 223.302C45.7851 190.17 31.226 145.454 35.5057 103.126C42.3031 68.6067 65.1982 36.8284 83.288 24.463L84.8253 23.4549C108.106 8.70907 134.466 5.45952 165.438 13.4932C203.194 23.3005 227.071 60.3323 233.271 81.374C243.128 114.911 235.366 142.423 210.854 160.955C208.692 162.58 206.522 164.168 204.357 165.649C189.555 175.767 170.081 184.712 150.802 163.903C128.47 139.811 148.522 117.266 158.169 106.429C165.779 97.8865 160.909 87.1972 160.32 85.991C158.171 81.591 151.37 75.6478 144.201 76.0361L144.199 76.0381ZM641.88 621.051C542.216 689.485 390.255 691.606 300.058 574.206C289.822 557.575 279.865 538.687 269.597 516.503C267.902 512.855 266.351 509.215 264.683 505.068C246.273 445.958 249.336 387.65 273.767 331.779C286.732 302.134 306.062 278.387 331.216 261.193C359.632 241.769 395.323 230.72 437.325 228.351C511.502 224.167 570.897 252.397 609.109 310.027C651.609 374.145 656.802 435.983 624.523 493.833C611.14 517.812 594.035 537.045 573.635 550.99C537.126 575.946 492.772 581.28 448.787 565.998C379.328 541.867 336.326 468.356 350.905 398.603C356.246 373.081 369.69 352.337 389.799 338.59C422.202 316.441 465.991 316.925 504.072 339.84C522.128 350.705 535.846 368.298 541.726 388.134C547.126 406.334 545.577 424.756 537.371 439.972C533.101 447.906 526.769 454.886 519.058 460.158C496.016 475.908 466.034 474.241 447.753 456.174C441.664 450.142 436.111 439.273 437.477 428.584C437.962 424.782 440.755 420.784 444.939 417.924C448.185 415.704 455.088 412.282 464.709 414.438C471.405 415.939 477.008 415.326 480.928 412.647C486.382 408.918 487.325 402.154 487.164 397.123C486.635 380.504 463.55 375.748 456.506 374.672C444.941 372.927 433.642 375.552 423.845 382.248C403.617 396.076 394.303 423.271 401.218 448.375C406.341 467.017 421.262 483.619 442.179 493.909C469.971 507.582 503.034 508.148 528.459 495.386C533.14 493.022 537.65 490.379 541.846 487.51C587.678 456.18 597.403 397.934 564.986 349.004C535.092 303.886 478.079 279.666 423.104 288.752C400.889 292.429 381.302 299.989 364.864 311.226C337.744 329.765 320.398 357.644 314.721 391.816C304.574 452.88 324.003 511.44 368.04 552.487C417.458 598.529 488.404 613.912 557.821 593.638C572.419 589.381 586.463 582.665 599.6 573.685C639.529 546.39 660.493 505.363 665.181 491.858C681.096 446.178 684.967 377.645 657.778 327.522C631.127 278.389 595.363 240.334 554.35 217.461L544.442 211.931L554.169 207.371C558.821 205.194 563.318 202.621 567.531 199.741C576.391 193.684 584.167 186.154 590.644 177.339L593.624 173.278L597.988 176.33C739.609 275.483 801.821 511.223 641.877 621.053L641.88 621.051ZM423.722 -8.897C451.345 -27.78 483.997 -31.5889 513.312 -19.3749C567.385 3.17712 598.328 65.0219 585.263 124.446C580.461 146.28 567.02 166.54 549.289 178.66C539.94 185.052 529.745 188.866 519.846 189.679C487.498 192.322 449.217 163.863 442.585 132.215C438.115 110.87 447.525 86.0328 464.494 74.4339C468.336 71.8079 472.417 69.9563 476.638 68.9097C486.927 66.3691 496.864 68.6214 503.894 75.0963C509.622 80.3722 516.013 90.7094 513.841 109.954C513.198 115.74 513.398 120.576 513.851 122.604C514.144 123.886 514.975 124.991 516.319 125.911C518.977 127.707 522.998 128.323 526.826 127.522C527.926 127.293 529.084 126.775 530.273 125.962C533.851 123.517 537.137 118.827 538.274 114.559C545.527 87.5213 533.795 55.3279 512.15 42.7762C493.349 31.8975 470.421 33.3873 450.811 46.7921C430.042 60.9897 416.976 85.7774 415.86 113.068C414.582 144.754 428.76 168.383 440.87 182.625L449.135 192.33L436.983 191.797C407.086 190.508 358.289 204.939 345.261 212.635L329.606 221.896L337.29 205.029C344.069 190.158 355.335 160.773 358.004 144.931C359.093 138.464 360.149 131.808 361.201 125.114C366.194 93.288 371.372 60.3986 383.108 37.9205C393.291 18.5303 407.322 2.31408 423.722 -8.897ZM368.073 7.83628L368.01 9.21987L367.317 10.3616C362.012 19.189 357.231 28.7027 353.111 38.6436L347.68 51.7163L342.86 37.6917C324.558 -15.5811 286.216 -64.7418 240.303 -93.8344L235.835 -96.6698L237.957 -101.277C242.669 -111.516 246.528 -122.153 249.36 -132.591C249.421 -132.925 256.447 -166.684 254.399 -199.67L253.675 -211.207L262.968 -204.108C316.922 -162.795 372.88 -85.4425 368.073 7.83831L368.073 7.83628Z" fill="#B7C0C5" fill-opacity="0.5"/>
</g>
</svg>
