<svg width="2236" height="2305" viewBox="0 0 2236 2305" fill="none" xmlns="http://www.w3.org/2000/svg">
<mask id="mask0_2111_9229" style="mask-type:alpha" maskUnits="userSpaceOnUse" x="0" y="0" width="2236" height="2305">
<rect width="2236" height="2305" fill="#D9D9D9"/>
</mask>
<g mask="url(#mask0_2111_9229)">
<g style="mix-blend-mode:hard-light" opacity="0.2">
<path fill-rule="evenodd" clip-rule="evenodd" d="M1702.79 996.679L1704.28 992.441L1708.63 992.631C1727.81 993.435 1746.96 990.902 1765.54 985.072C1791.07 977.064 1819.35 959.57 1839.33 938.842C1862.26 915.056 1880.12 867.249 1876.68 836.839C1873.06 804.603 1859.23 777.99 1835.6 757.766C1830.98 753.81 1825.92 750.066 1820.6 746.67L1811.61 740.926L1824.35 735.815C1849.47 725.899 1874.06 709.964 1895.73 691.165C1921.33 668.951 1938.27 647.551 1956.22 619.975C1993.74 562.357 2017.89 532.542 2068.08 479.895C2121.73 413.281 2151.35 331.161 2138.65 249.558C2132.02 206.832 2111.99 169.973 2080.69 142.987C2059.49 125.095 2051.43 120.601 2025.93 110.034C2018.62 107.04 2011.45 104.488 2004.04 102.246C1960.45 88.9984 1917.76 91.3941 1877.14 109.387C1849.28 121.742 1814.56 149.415 1793.05 174.028C1784.33 184.129 1775.99 195.033 1768.31 206.427C1739.71 248.833 1732.11 313.713 1740.58 360.307C1743.1 374.065 1756.92 416.059 1790.42 444.726C1799.83 452.787 1810.15 459.193 1821.07 463.777C1876.15 486.897 1935.54 480.398 1984.05 445.93C2032.39 411.576 2060.6 354.439 2059.55 293.074C2058.96 259.331 2046.6 231.189 2023.79 211.661C2011.36 201.026 1996.1 193.179 1978.46 188.366C1931.75 175.625 1878.89 193.886 1846.96 233.815C1811.21 278.493 1813.03 334.689 1851.28 367.427C1853.93 369.692 1856.77 371.852 1859.71 373.846C1878.89 386.835 1905.22 389.43 1930.1 380.792C1952.01 373.185 1968.87 358.142 1976.4 339.495C1985.81 316.169 1980.74 289.06 1964.37 275.047C1957.02 268.753 1948.05 265.793 1938.43 266.481C1932.16 266.92 1911.53 269.585 1908.91 285.181C1907.79 291.928 1909.01 297.235 1912.4 300.134C1915.26 302.585 1919.73 303.442 1925.33 302.633C1931.83 301.674 1937.96 303.333 1942.57 307.279C1946.3 310.479 1948.49 314.724 1948.41 318.626C1948.23 328.711 1941.98 338.439 1935.88 343.612C1917.86 358.869 1891.41 358.51 1872.99 342.743C1866.2 336.938 1861.04 329.417 1858.12 320.999C1846.68 288.296 1865.58 247.277 1900.25 229.57C1935.88 211.389 1974.03 213.81 1999.83 235.892C2016.7 250.33 2026.77 272.11 2028.19 297.236C2031.95 363.819 1984.69 429.51 1920.61 446.771C1881.16 457.398 1843.66 449.729 1815.01 425.229C1797.72 410.438 1783.81 389.552 1774.75 364.81C1753.64 307.129 1765.81 251.079 1811.97 193.416C1852.99 142.167 1908.92 120.242 1973.69 130.011C2008.64 135.274 2037.61 147.555 2059.77 166.521C2081.44 185.071 2096.49 209.959 2104.45 240.457C2120.23 300.98 2112.56 361.942 2081.6 421.624C2051.7 479.246 1986.56 528.708 1919.51 544.717C1880.34 554.068 1823.07 556.15 1772.64 512.994C1766.35 507.604 1760.27 501.565 1754.56 495.047C1752.61 492.835 1750.82 490.532 1749.12 488.196L1748.62 487.512L1748.36 486.706C1741.86 465.84 1730.47 447.842 1714.53 433.205C1713.87 432.597 1713.19 431.991 1712.5 431.4C1694.22 415.757 1665.36 404.747 1635.29 401.917C1608.5 399.401 1572.67 404.815 1548.38 419.197C1521.8 434.966 1393.32 521.631 1475.19 680.667L1481.22 692.378L1468.42 688.9C1462 687.145 1455.43 685.712 1448.46 684.549C1443.61 683.346 1438.59 682.199 1434.34 681.397C1377.61 670.64 1290.34 705.24 1241.33 745.052C1233.02 751.789 1224.98 758.862 1217.41 766.094C1161.64 819.246 1144.24 867.492 1135.31 903.583C1100.35 1045.23 1203.88 1198.97 1339.26 1226.67C1484.51 1256.39 1653.04 1138.17 1702.8 996.679L1702.79 996.679ZM1655.73 529.482C1653.96 524.062 1650.42 518.97 1645.46 514.732C1642.53 512.219 1639.23 510.1 1635.66 508.446C1607.35 495.28 1572.19 506.81 1552.03 535.857C1529.32 568.606 1541.46 606.686 1563.58 629.878C1566.34 632.787 1569.26 635.553 1572.23 638.097C1598.9 660.927 1633.49 668.207 1667.16 658.071C1702.37 647.464 1731.71 619.412 1745.61 583.039C1748.8 574.692 1754.18 556.244 1754.09 540.084L1754.02 527.944L1763.23 535.146C1780.55 548.699 1799.98 559.188 1820.96 566.339L1825.67 567.946L1824.12 572.943C1807.07 628.182 1755.49 700.582 1665.87 722.862L1664.29 723.122L1664.12 723.294L1662.37 723.693C1656.91 724.935 1651.79 725.925 1646.29 726.748C1601.49 729.737 1556.29 714.778 1522.27 685.665C1497.99 664.881 1481.44 638.411 1474.41 609.101C1465.47 571.859 1472.93 533.193 1495.41 500.224C1520.02 464.157 1559.44 438.598 1601.44 431.797C1636.54 429.436 1673.16 443.284 1689.79 457.514L1691.16 458.734C1711.43 477.35 1721.39 501.896 1721.65 533.796C1721.94 572.687 1692.35 605.237 1673.63 616.637C1643.79 634.784 1615.21 634.408 1590.96 615.585C1588.83 613.922 1586.74 612.242 1584.75 610.539C1571.14 598.895 1557.46 582.449 1572.57 558.514C1590.06 530.79 1617.03 544.283 1630 550.778C1640.22 555.901 1649.28 548.453 1650.29 547.575C1653.99 544.37 1657.97 536.287 1655.74 529.483L1655.73 529.482ZM1258.1 1149.4C1166.21 1071.08 1124.83 925.283 1214.88 808.126C1228.3 793.977 1243.96 779.515 1262.73 763.902C1265.82 761.329 1268.93 758.896 1272.51 756.219C1324.84 723.236 1381.95 711.14 1442.24 720.251C1474.23 725.087 1502.17 737.575 1525.29 757.362C1551.41 779.715 1571.32 811.235 1584.48 851.073C1607.72 921.428 1595.82 985.912 1550.05 1037.58C1499.11 1095.06 1440.73 1116.01 1376.49 1099.86C1349.87 1093.15 1326.86 1081.65 1308.11 1065.6C1274.56 1036.88 1257.93 995.541 1261.3 949.239C1266.63 876.121 1326.51 815.74 1397.66 811.781C1423.7 810.339 1447.21 817.933 1465.7 833.751C1495.48 859.24 1506.34 901.536 1494.06 944.121C1488.24 964.314 1474.8 982.064 1457.16 992.845C1440.98 1002.74 1422.78 1006 1405.96 1002.03C1397.19 999.963 1388.81 995.666 1381.72 989.601C1360.55 971.475 1354.4 942.171 1367.12 919.904C1371.37 912.484 1380.43 904.331 1391.11 902.888C1394.91 902.375 1399.49 904.032 1403.34 907.324C1406.32 909.877 1411.41 915.642 1411.82 925.463C1412.1 932.299 1414.15 937.536 1417.75 940.621C1422.76 944.91 1429.54 944.073 1434.36 942.62C1450.27 937.822 1448.89 914.364 1448.11 907.302C1446.8 895.714 1441.34 885.51 1432.34 877.804C1413.74 861.891 1385.07 859.939 1362.61 873.077C1345.93 882.82 1333.75 901.474 1329.23 924.273C1323.21 954.565 1331.22 986.552 1350.13 1007.74C1353.62 1011.64 1357.35 1015.3 1361.2 1018.6C1403.33 1054.66 1462.11 1048.99 1500.98 1005.15C1536.82 964.717 1545.46 903.562 1522.45 852.964C1513.15 832.519 1500.78 815.607 1485.67 802.676C1460.75 781.343 1429.33 771.832 1394.85 775.183C1333.24 781.168 1281.71 814.99 1253.46 867.991C1221.77 927.462 1225.28 999.754 1262.83 1061.37C1270.72 1074.33 1280.84 1086.13 1292.91 1096.46C1329.61 1127.87 1374.67 1137.47 1388.92 1138.5C1437.17 1142.04 1504.37 1128.08 1545.74 1088.97C1586.31 1050.62 1613.81 1006.36 1625.29 960.962L1628.06 949.993L1634.99 958.183C1638.29 962.101 1641.94 965.768 1645.81 969.083C1653.96 976.052 1663.24 981.597 1673.43 985.56L1678.13 987.383L1676.31 992.373C1617.19 1154.34 1405.58 1275.09 1258.1 1149.4L1258.1 1149.4ZM1810.12 776.753C1835.51 798.482 1847.64 828.944 1843.43 860.327C1835.64 918.22 1783.91 963.978 1723.13 966.73C1700.8 967.74 1677.75 960.024 1661.45 946.075C1652.86 938.721 1646.54 929.888 1643.19 920.564C1632.27 890.095 1649.85 845.885 1678.7 831.331C1698.16 821.519 1724.59 824.172 1740.18 837.521C1743.71 840.543 1746.56 843.995 1748.66 847.79C1753.78 857.043 1754.18 867.194 1749.74 875.635C1746.13 882.513 1737.8 891.335 1718.65 894.209C1712.89 895.083 1708.27 896.523 1706.43 897.483C1705.27 898.096 1704.41 899.181 1703.87 900.712C1702.83 903.736 1703.27 907.768 1705.04 911.247C1705.54 912.248 1706.34 913.229 1707.44 914.164C1710.72 916.979 1716.1 918.933 1720.52 918.927C1748.51 918.935 1776.57 899.329 1783.1 875.246C1788.74 854.332 1781.36 832.636 1763.34 817.21C1744.25 800.873 1716.93 794.687 1690.28 800.654C1659.34 807.6 1640.19 827.351 1629.56 842.688L1622.33 853.151L1619.7 841.312C1613.21 812.187 1586.64 768.918 1575.83 758.358L1562.83 745.671L1581.11 748.718C1597.23 751.409 1628.53 754.676 1644.53 753.159C1651.05 752.539 1657.76 751.839 1664.5 751.124C1696.53 747.72 1729.64 744.22 1754.39 749.721C1775.75 754.524 1795.05 763.852 1810.12 776.753ZM1779.56 727.48L1778.2 727.776L1776.92 727.403C1767.02 724.572 1756.59 722.423 1745.93 721.02L1731.89 719.163L1744.19 710.902C1790.91 679.53 1828.47 629.921 1844.69 578.199L1846.28 573.164L1851.27 574.019C1862.38 575.914 1873.66 576.885 1884.47 576.919C1884.81 576.892 1919.24 574.947 1950.57 564.463L1961.53 560.789L1957.08 571.57C1931.13 634.189 1870.9 708.039 1779.55 727.48L1779.56 727.48Z" fill="white"/>
</g>
<g style="mix-blend-mode:hard-light" opacity="0.2">
<path fill-rule="evenodd" clip-rule="evenodd" d="M635.871 1446.42L633.336 1450.13L629.183 1448.82C610.862 1443.1 591.708 1440.6 572.248 1441.44C545.506 1442.58 513.652 1452.19 488.967 1467.05C460.647 1484.11 430.985 1525.68 426.416 1555.94C421.54 1588.01 427.992 1617.29 445.566 1642.92C449.004 1647.93 452.922 1652.86 457.178 1657.51L464.369 1665.38L450.731 1667.03C423.895 1670.12 396.008 1679.17 370.197 1691.74C339.697 1706.59 317.786 1722.89 293.282 1744.89C242.085 1790.86 211.024 1813.43 148.87 1851.33C79.7567 1901.83 29.8291 1973.51 20.9123 2055.61C16.2276 2098.59 26.0073 2139.37 49.2314 2173.51C65.0693 2196.26 71.6826 2202.68 93.5703 2219.47C99.8546 2224.25 106.114 2228.56 112.69 2232.64C151.363 2256.68 193.217 2265.39 237.119 2258.49C267.241 2253.74 307.959 2235.97 335.133 2217.75C346.177 2210.24 357.057 2201.86 367.437 2192.84C406.067 2159.25 430.255 2098.55 434.171 2051.36C435.31 2037.42 432.857 1993.29 407.947 1956.95C400.942 1946.74 392.639 1937.89 383.284 1930.64C336.084 1894.1 277.026 1885.05 221.227 1905.83C165.61 1926.53 123.526 1974.44 108.616 2033.99C100.421 2066.73 105.056 2097.11 122.026 2121.86C131.268 2135.34 143.969 2146.85 159.761 2156.06C201.573 2180.42 257.368 2176.42 298.574 2146.09C344.709 2112.16 357.535 2057.41 329.085 2015.91C327.117 2013.04 324.933 2010.22 322.61 2007.54C307.462 1990.04 282.702 1980.74 256.424 1982.66C233.289 1984.36 213.092 1994.54 200.983 2010.61C185.834 2030.71 183.692 2058.2 195.868 2075.96C201.338 2083.94 209.23 2089.11 218.707 2090.93C224.872 2092.12 245.497 2094.88 252.072 2080.49C254.902 2074.26 255.1 2068.81 252.582 2065.14C250.452 2062.03 246.357 2060.05 240.743 2059.39C234.212 2058.64 228.729 2055.46 225.299 2050.46C222.519 2046.4 221.514 2041.74 222.601 2037.99C225.394 2028.29 233.951 2020.51 241.192 2017.09C262.561 2007 288.014 2014.17 301.715 2034.15C306.759 2041.51 309.791 2050.11 310.43 2058.99C312.993 2093.54 284.089 2128.28 246 2136.44C206.863 2144.8 170.643 2132.62 151.453 2104.63C138.907 2086.33 134.838 2062.7 139.989 2038.06C153.636 1972.78 216.341 1921.52 282.72 1921.38C323.583 1921.3 357.818 1938.38 379.133 1969.44C391.986 1988.19 400.007 2011.95 402.329 2038.19C407.75 2099.35 381.448 2150.35 321.891 2194.14C268.962 2233.06 209.244 2239.8 149.221 2213.65C116.821 2199.55 92.0328 2180.21 75.5521 2156.17C59.4319 2132.66 51.3575 2104.74 51.5812 2073.23C52.0553 2010.7 75.2917 1953.79 120.687 1904.13C164.523 1856.19 240.284 1825.22 309.208 1827.06C349.472 1828.13 405.331 1840.9 442.835 1895.6C447.519 1902.43 451.819 1909.83 455.641 1917.6C456.952 1920.24 458.082 1922.93 459.117 1925.62L459.427 1926.41L459.463 1927.25C460.333 1949.09 466.663 1969.41 478.259 1987.66C478.735 1988.42 479.235 1989.18 479.75 1989.93C493.343 2009.76 518.359 2027.84 546.672 2038.33C571.897 2047.68 607.907 2051.69 635.103 2044.07C664.877 2035.7 811.474 1985.14 773.682 1810.39L770.894 1797.52L782.355 1804.19C788.099 1807.54 794.077 1810.62 800.508 1813.54C804.878 1815.95 809.432 1818.36 813.324 1820.23C865.336 1845.26 958.61 1834.36 1016.29 1808.55C1026.06 1804.18 1035.67 1799.43 1044.86 1794.4C1112.52 1757.45 1141.85 1715.33 1159.85 1682.78C1230.39 1554.98 1170.29 1379.76 1046.72 1318.07C914.132 1251.88 720.661 1322.59 635.861 1446.42L635.871 1446.42ZM560.041 1909.84C560.351 1915.53 562.448 1921.36 566.132 1926.74C568.316 1929.92 570.951 1932.82 573.974 1935.34C597.895 1955.36 634.857 1953.3 661.864 1930.44C692.306 1904.67 690.463 1864.75 675.117 1836.64C673.204 1833.12 671.109 1829.7 668.899 1826.47C649.059 1797.54 617.539 1781.58 582.386 1782.68C545.621 1783.84 509.999 1803.37 487.132 1834.92C481.88 1842.15 471.902 1858.59 467.787 1874.22L464.707 1885.96L457.68 1876.63C444.471 1859.07 428.425 1843.92 410.011 1831.6L405.88 1828.83L408.672 1824.41C439.488 1775.45 508.103 1718.83 600.453 1720.43L602.041 1720.59L602.251 1720.47L604.051 1720.53C609.647 1720.74 614.847 1721.11 620.372 1721.73C664.424 1730.4 704.201 1756.52 729.501 1793.42C747.561 1819.76 756.675 1849.6 755.857 1879.72C754.822 1918 737.58 1953.43 707.304 1979.47C674.172 2007.96 629.456 2022.47 587.129 2018.21C552.609 2011.43 520.831 1988.6 508.465 1970.57L507.457 1969.03C492.711 1945.82 489.462 1919.54 497.496 1888.66C507.303 1851.02 544.335 1827.22 565.376 1821.03C598.913 1811.21 626.425 1818.94 644.957 1843.38C646.582 1845.54 648.171 1847.7 649.651 1849.86C659.769 1864.62 668.714 1884.03 647.905 1903.26C623.813 1925.52 601.268 1905.53 590.432 1895.91C581.889 1888.32 571.2 1893.18 569.993 1893.77C565.593 1895.91 559.65 1902.69 560.039 1909.84L560.041 1909.84ZM1105.05 1413.65C1173.49 1513.02 1175.61 1664.52 1058.21 1754.45C1041.58 1764.65 1022.69 1774.58 1000.5 1784.82C996.857 1786.51 993.217 1788.05 989.071 1789.72C929.961 1808.07 871.653 1805.02 815.781 1780.66C786.136 1767.73 762.389 1748.46 745.195 1723.38C725.771 1695.05 714.722 1659.47 712.353 1617.59C708.17 1543.64 736.399 1484.42 794.029 1446.32C858.147 1403.95 919.985 1398.77 977.835 1430.96C1001.81 1444.3 1021.05 1461.35 1034.99 1481.69C1059.95 1518.09 1065.28 1562.31 1050 1606.16C1025.87 1675.42 952.359 1718.29 882.605 1703.75C857.083 1698.43 836.34 1685.02 822.593 1664.98C800.443 1632.67 800.927 1589.01 823.842 1551.05C834.707 1533.04 852.301 1519.37 872.137 1513.5C890.336 1508.12 908.758 1509.66 923.975 1517.85C931.908 1522.1 938.889 1528.42 944.161 1536.1C959.911 1559.08 958.244 1588.97 940.177 1607.2C934.145 1613.27 923.275 1618.8 912.586 1617.44C908.784 1616.96 904.787 1614.17 901.926 1610C899.706 1606.76 896.284 1599.88 898.44 1590.29C899.941 1583.61 899.329 1578.03 896.649 1574.12C892.92 1568.68 886.156 1567.74 881.126 1567.9C864.506 1568.43 859.75 1591.45 858.674 1598.47C856.929 1610 859.554 1621.26 866.25 1631.03C880.078 1651.2 907.273 1660.49 932.378 1653.59C951.02 1648.48 967.621 1633.61 977.912 1612.75C991.584 1585.04 992.15 1552.08 979.389 1526.73C977.024 1522.07 974.381 1517.57 971.513 1513.38C940.182 1467.69 881.936 1457.99 833.006 1490.31C787.888 1520.12 763.668 1576.96 772.755 1631.77C776.431 1653.92 783.991 1673.45 795.229 1689.84C813.767 1716.87 841.646 1734.17 875.818 1739.83C936.882 1749.95 995.442 1730.57 1036.49 1686.67C1082.53 1637.4 1097.91 1566.67 1077.64 1497.46C1073.38 1482.9 1066.67 1468.9 1057.69 1455.8C1030.39 1415.99 989.366 1395.09 975.861 1390.42C930.18 1374.55 861.647 1370.69 811.525 1397.8C762.392 1424.37 724.336 1460.03 701.464 1500.92L695.934 1510.8L691.373 1501.1C689.197 1496.46 686.623 1491.98 683.743 1487.78C677.686 1478.94 670.156 1471.19 661.341 1464.73L657.28 1461.76L660.333 1457.41C759.485 1316.22 995.225 1254.19 1105.06 1413.65L1105.05 1413.65ZM475.105 1631.15C456.222 1603.61 452.413 1571.06 464.627 1541.83C487.179 1487.92 549.024 1457.07 608.448 1470.1C630.283 1474.89 650.543 1488.29 662.663 1505.96C669.054 1515.29 672.868 1525.45 673.681 1535.32C676.324 1567.57 647.865 1605.74 616.217 1612.35C594.872 1616.81 570.035 1607.42 558.436 1590.5C555.81 1586.67 553.959 1582.61 552.912 1578.4C550.371 1568.14 552.624 1558.23 559.099 1551.22C564.375 1545.51 574.712 1539.14 593.956 1541.31C599.742 1541.95 604.578 1541.75 606.606 1541.3C607.888 1541 608.993 1540.18 609.913 1538.84C611.709 1536.19 612.326 1532.18 611.525 1528.36C611.295 1527.26 610.777 1526.11 609.964 1524.92C607.519 1521.36 602.829 1518.08 598.561 1516.95C571.524 1509.72 539.33 1521.41 526.778 1542.99C515.9 1561.74 517.39 1584.6 530.794 1604.15C544.992 1624.85 569.78 1637.88 597.07 1638.99C628.757 1640.27 652.385 1626.13 666.627 1614.06L676.332 1605.82L675.8 1617.93C674.51 1647.74 688.941 1696.39 696.637 1709.38L705.899 1724.99L689.031 1717.33C674.16 1710.57 644.775 1699.34 628.933 1696.68C622.466 1695.59 615.81 1694.54 609.117 1693.49C577.29 1688.51 544.401 1683.35 521.923 1671.65C502.533 1661.49 486.316 1647.51 475.105 1631.15ZM491.839 1686.64L493.222 1686.7L494.364 1687.39C503.191 1692.68 512.705 1697.45 522.646 1701.55L535.719 1706.97L521.694 1711.77C468.421 1730.02 419.261 1768.25 390.168 1814.02L387.333 1818.48L382.725 1816.36C372.486 1811.66 361.849 1807.82 351.412 1804.99C351.077 1804.93 317.318 1797.93 284.332 1799.97L272.795 1800.69L279.894 1791.43C321.207 1737.63 398.56 1681.84 491.841 1686.64L491.839 1686.64Z" fill="white"/>
</g>
</g>
</svg>
