<svg width="1056" height="505" viewBox="0 0 1056 505" fill="none" xmlns="http://www.w3.org/2000/svg">
<mask id="mask0_2002_11314" style="mask-type:alpha" maskUnits="userSpaceOnUse" x="0" y="0" width="1056" height="505">
<rect width="1056" height="505" fill="#D9D9D9"/>
</mask>
<g mask="url(#mask0_2002_11314)">
<path opacity="0.5" fill-rule="evenodd" clip-rule="evenodd" d="M557.961 348.518L560.496 344.797L564.649 346.108C582.97 351.851 602.123 354.353 621.584 353.513C648.326 352.364 680.18 342.734 704.865 327.824C733.185 310.713 762.847 269.018 767.416 238.665C772.292 206.498 765.84 177.134 748.266 151.426C744.828 146.396 740.91 141.458 736.653 136.791L729.462 128.9L743.101 127.247C769.937 124.141 797.824 115.067 823.635 102.462C854.135 87.5677 876.046 71.2176 900.55 49.1483C951.747 3.03607 982.808 -19.6002 1044.96 -57.6146C1114.08 -108.267 1164 -180.162 1172.92 -262.508C1177.6 -305.619 1167.82 -346.514 1144.6 -380.759C1128.76 -403.582 1122.15 -410.02 1100.26 -426.857C1093.98 -431.651 1087.72 -435.978 1081.14 -440.068C1042.47 -464.187 1000.62 -472.913 956.713 -465.994C926.591 -461.235 885.873 -443.41 858.699 -425.134C847.655 -417.604 836.775 -409.197 826.395 -400.146C787.765 -366.463 763.577 -305.574 759.661 -258.24C758.522 -244.259 760.975 -199.995 785.885 -163.553C792.89 -153.306 801.193 -144.429 810.548 -137.162C857.748 -100.507 916.805 -91.4316 972.605 -112.271C1028.22 -133.042 1070.31 -181.096 1085.22 -240.822C1093.41 -273.665 1088.78 -304.129 1071.81 -328.953C1062.56 -342.474 1049.86 -354.025 1034.07 -363.254C992.259 -387.688 936.464 -383.676 895.258 -353.255C849.123 -319.223 836.297 -264.307 864.747 -222.688C866.715 -219.809 868.899 -216.982 871.222 -214.288C886.37 -196.741 911.13 -187.412 937.408 -189.341C960.543 -191.041 980.74 -201.251 992.849 -217.368C1008 -237.531 1010.14 -265.107 997.964 -282.92C992.494 -290.922 984.602 -296.11 975.125 -297.934C968.96 -299.13 948.335 -301.89 941.76 -287.457C938.93 -281.209 938.732 -275.751 941.25 -272.066C943.38 -268.95 947.475 -266.964 953.089 -266.3C959.62 -265.545 965.103 -262.354 968.533 -257.336C971.312 -253.269 972.318 -248.592 971.231 -244.831C968.438 -235.108 959.881 -227.298 952.64 -223.868C931.271 -213.75 905.818 -220.943 892.117 -240.987C887.073 -248.367 884.041 -256.988 883.402 -265.9C880.838 -300.546 909.743 -335.395 947.832 -343.576C986.969 -351.968 1023.19 -339.749 1042.38 -311.677C1054.92 -293.323 1058.99 -269.616 1053.84 -244.906C1040.2 -179.424 977.491 -128.013 911.112 -127.875C870.249 -127.789 836.014 -144.926 814.699 -176.078C801.846 -194.881 793.825 -218.718 791.502 -245.032C786.082 -306.38 812.384 -357.534 871.941 -401.453C924.87 -440.487 984.588 -447.252 1044.61 -421.025C1077.01 -406.879 1101.8 -387.484 1118.28 -363.374C1134.4 -339.792 1142.47 -311.786 1142.25 -280.176C1141.78 -217.458 1118.54 -160.381 1073.15 -110.571C1029.31 -62.4824 953.548 -31.4213 884.624 -33.2658C844.36 -34.345 788.501 -47.1498 750.997 -102.012C746.313 -108.865 742.013 -116.288 738.191 -124.08C736.88 -126.728 735.75 -129.422 734.715 -132.125L734.405 -132.918L734.369 -133.765C733.499 -155.665 727.169 -176.051 715.573 -194.357C715.097 -195.115 714.597 -195.879 714.082 -196.63C700.489 -216.516 675.473 -234.652 647.16 -245.177C621.935 -254.549 585.925 -258.575 558.729 -250.929C528.955 -242.532 382.358 -191.82 420.15 -16.5524L422.938 -3.64407L411.477 -10.3269C405.733 -13.6885 399.755 -16.7785 393.324 -19.7089C388.954 -22.1292 384.4 -24.5407 380.508 -26.4161C328.496 -51.5228 235.222 -40.5869 177.545 -14.7015C167.774 -10.3231 158.166 -5.55345 148.976 -0.506115C81.3072 36.5548 51.9831 78.7956 33.9865 111.45C-36.5535 239.629 23.5372 415.375 147.115 477.253C279.7 543.643 473.171 472.718 557.97 348.521L557.961 348.518ZM633.791 -116.297C633.481 -122.008 631.384 -127.857 627.7 -133.245C625.516 -136.44 622.881 -139.346 619.858 -141.874C595.937 -161.954 558.975 -159.886 531.968 -136.96C501.526 -111.111 503.369 -71.0754 518.715 -42.8803C520.628 -39.3474 522.723 -35.9141 524.933 -32.6801C544.773 -3.65749 576.293 12.3479 611.446 11.2414C648.211 10.079 683.833 -9.50584 706.7 -41.1474C711.952 -48.4081 721.93 -64.8902 726.045 -80.5685L729.125 -92.3489L736.152 -82.9877C749.36 -65.3752 765.407 -50.1835 783.821 -37.8246L787.952 -35.049L785.16 -30.6078C754.344 18.4945 685.729 75.289 593.379 73.679L591.791 73.5234L591.581 73.6459L589.781 73.5776C584.185 73.3681 578.985 73.0031 573.46 72.3775C529.408 63.6775 489.631 37.4857 464.331 0.475923C446.271 -25.9451 437.157 -55.8734 437.975 -86.0891C439.01 -124.484 456.252 -160.015 486.528 -186.137C519.66 -214.711 564.376 -229.27 606.703 -224.99C641.223 -218.193 673.001 -195.298 685.367 -177.208L686.375 -175.67C701.121 -152.39 704.37 -126.03 696.336 -95.0575C686.529 -57.3019 649.497 -33.4247 628.456 -27.2252C594.919 -17.3677 567.407 -25.1293 548.875 -49.6416C547.25 -51.8036 545.661 -53.9735 544.181 -56.1383C534.063 -70.9406 525.118 -90.4144 545.927 -109.694C570.019 -132.026 592.564 -111.974 603.4 -102.326C611.943 -94.717 622.632 -99.587 623.839 -100.176C628.239 -102.325 634.182 -109.126 633.793 -116.295L633.791 -116.297ZM88.7787 381.384C20.3444 281.72 18.2232 129.759 135.624 39.562C152.255 29.3259 171.143 19.3691 193.327 9.10107C196.975 7.40664 200.615 5.85553 204.761 4.18739C263.871 -14.223 322.179 -11.1602 378.051 13.2708C407.696 26.2363 431.443 45.5665 448.637 70.7205C468.06 99.1358 479.11 134.827 481.479 176.829C485.662 251.006 457.433 310.402 399.802 348.614C335.685 391.113 273.846 396.306 215.997 364.027C192.018 350.644 172.785 333.539 158.839 313.14C133.883 276.63 128.549 232.277 143.831 188.291C167.963 118.832 241.473 75.8307 311.227 90.4094C336.749 95.7504 357.492 109.194 371.239 129.304C393.389 161.707 392.905 205.496 369.99 243.576C359.125 261.633 341.531 275.351 321.695 281.231C303.496 286.631 285.074 285.082 269.857 276.875C261.923 272.605 254.943 266.273 249.671 258.562C233.921 235.521 235.588 205.538 253.655 187.257C259.687 181.169 270.557 175.616 281.246 176.981C285.048 177.467 289.045 180.259 291.906 184.444C294.126 187.69 297.548 194.592 295.391 204.213C293.891 210.909 294.503 216.512 297.183 220.433C300.912 225.886 307.676 226.829 312.706 226.669C329.326 226.139 334.082 203.055 335.158 196.01C336.903 184.445 334.278 173.146 327.582 163.349C313.754 143.121 286.559 133.807 261.454 140.723C242.812 145.845 226.211 160.767 215.92 181.683C202.248 209.475 201.682 242.539 214.443 267.964C216.808 272.644 219.451 277.154 222.319 281.351C253.65 327.182 311.896 336.907 360.826 304.49C405.943 274.596 430.163 217.583 421.077 162.608C417.401 140.393 409.841 120.807 398.603 104.368C380.065 77.248 352.186 59.9022 318.014 54.2249C256.95 44.0783 198.39 63.5075 157.343 107.544C111.301 156.962 95.9173 227.908 116.192 297.325C120.448 311.923 127.165 325.968 136.145 339.104C163.44 379.034 204.466 399.998 217.971 404.686C263.652 420.6 332.184 424.471 382.307 397.283C431.44 370.632 469.496 334.867 492.368 293.855L497.898 283.946L502.458 293.673C504.635 298.325 507.209 302.822 510.089 307.036C516.146 315.895 523.676 323.671 532.491 330.148L536.552 333.129L533.499 337.493C434.347 479.113 198.607 541.326 88.7767 381.382L88.7787 381.384ZM718.727 163.226C737.61 190.85 741.418 223.501 729.204 252.816C706.652 306.889 644.808 337.832 585.383 324.768C563.549 319.966 543.289 306.525 531.169 288.793C524.778 279.444 520.964 269.25 520.151 259.35C517.508 227.003 545.966 188.722 577.615 182.089C598.96 177.619 623.797 187.03 635.396 203.999C638.022 207.84 639.873 211.921 640.92 216.143C643.461 226.432 641.208 236.368 634.733 243.398C629.457 249.126 619.12 255.517 599.876 253.345C594.09 252.702 589.254 252.902 587.226 253.355C585.944 253.649 584.839 254.479 583.919 255.823C582.122 258.481 581.506 262.503 582.307 266.33C582.537 267.431 583.055 268.588 583.868 269.778C586.313 273.355 591.003 276.641 595.271 277.778C622.308 285.031 654.502 273.299 667.053 251.654C677.932 232.853 676.442 209.925 663.037 190.315C648.84 169.546 624.052 156.481 596.762 155.365C565.075 154.087 541.447 168.265 527.205 180.375L517.5 188.639L518.032 176.488C519.322 146.59 504.891 97.7932 497.194 84.7652L487.933 69.1098L504.8 76.7939C519.672 83.5728 549.057 94.839 564.899 97.5084C571.366 98.5969 578.022 99.6535 584.715 100.705C616.542 105.699 649.431 110.876 671.909 122.612C691.299 132.795 707.516 146.826 718.727 163.226ZM701.993 107.578L700.61 107.514L699.468 106.821C690.641 101.517 681.127 96.7353 671.186 92.6152L658.113 87.1843L672.138 82.3641C725.411 64.062 774.571 25.7204 803.664 -20.1924L806.499 -24.6608L811.107 -22.5384C821.346 -17.8264 831.983 -13.9682 842.42 -11.1362C842.755 -11.0751 876.514 -4.04823 909.5 -6.09631L921.037 -6.82049L913.938 2.47266C872.625 56.426 795.272 112.384 701.991 107.578L701.993 107.578Z" fill="#CFC8C2" fill-opacity="0.45"/>
</g>
</svg>
