<svg width="950" height="1139" viewBox="0 0 950 1139" fill="none" xmlns="http://www.w3.org/2000/svg">
<g style="mix-blend-mode:hard-light" opacity="0.2">
<path fill-rule="evenodd" clip-rule="evenodd" d="M574.792 903.497L576.277 899.26L580.628 899.45C599.811 900.254 618.959 897.72 637.539 891.89C663.072 883.883 691.348 866.389 711.334 845.661C734.26 821.875 752.12 774.067 748.677 743.658C745.062 711.422 731.23 684.808 707.6 664.585C702.978 660.629 697.916 656.884 692.596 653.488L683.608 647.744L696.354 642.633C721.471 632.717 746.059 616.782 767.729 597.983C793.334 575.769 810.267 554.37 828.224 526.793C865.742 469.175 889.886 439.361 940.083 386.714C993.732 320.1 1023.35 237.98 1010.65 156.377C1004.02 113.651 983.987 76.7915 952.691 49.8055C931.486 31.9137 923.431 27.4198 897.932 16.8529C890.621 13.8584 883.455 11.3061 876.044 9.06427C832.446 -4.18303 789.761 -1.78729 749.145 16.2053C721.281 28.5608 686.563 56.2336 665.046 80.8463C656.327 90.9472 647.994 101.851 640.311 113.246C611.714 155.652 604.109 220.532 612.578 267.125C615.096 280.884 628.922 322.878 662.416 351.544C671.834 359.606 682.151 366.011 693.069 370.596C748.147 393.716 807.541 387.217 856.046 352.749C904.392 318.394 932.604 261.257 931.548 199.893C930.964 166.149 918.601 138.007 895.785 118.48C883.359 107.844 868.1 99.9977 850.458 95.1848C803.747 82.4435 750.891 100.705 718.963 140.634C683.208 185.312 685.033 241.507 723.285 274.246C725.931 276.511 728.772 278.67 731.713 280.665C750.887 293.654 777.217 296.249 802.101 287.611C824.007 280.004 840.874 264.96 848.398 246.313C857.813 222.987 852.745 195.878 836.374 181.865C829.019 175.571 820.053 172.612 810.427 173.3C804.162 173.739 783.526 176.403 780.91 191.999C779.793 198.747 781.015 204.054 784.401 206.953C787.265 209.404 791.735 210.26 797.329 209.451C803.833 208.493 809.955 210.151 814.567 214.098C818.304 217.298 820.486 221.543 820.41 225.445C820.228 235.529 813.984 245.258 807.877 250.43C789.855 265.688 763.408 265.329 744.986 249.562C738.204 243.756 733.044 236.236 730.12 227.818C718.677 195.115 737.577 154.095 772.251 136.389C807.882 118.207 846.031 120.629 871.832 142.711C888.7 157.149 898.767 178.929 900.187 204.055C903.953 270.638 856.691 336.329 792.61 353.59C753.161 364.217 715.657 356.548 687.006 332.048C669.724 317.257 655.807 296.37 646.753 271.628C625.639 213.948 637.805 157.898 683.966 100.234C724.989 48.9855 780.921 27.0611 845.686 36.8295C880.644 42.0927 909.607 54.374 931.767 73.3395C953.441 91.8898 968.489 116.777 976.454 147.276C992.229 207.798 984.557 268.761 953.6 328.442C923.704 386.065 858.564 435.527 791.511 451.536C752.339 460.886 695.07 462.969 644.644 419.813C638.346 414.422 632.271 408.383 626.562 401.865C624.611 399.653 622.822 397.35 621.124 395.015L620.618 394.331L620.365 393.525C613.856 372.659 602.466 354.66 586.527 340.023C585.87 339.416 585.189 338.809 584.498 338.218C566.221 322.576 537.364 311.565 507.291 308.736C480.5 306.219 444.675 311.634 420.385 326.016C393.798 341.785 265.322 428.45 347.189 587.485L353.223 599.197L340.422 595.719C334.004 593.964 327.431 592.53 320.46 591.368C315.613 590.165 310.589 589.018 306.345 588.216C249.607 577.458 162.341 612.059 113.329 651.87C105.025 658.608 96.9783 665.681 89.4079 672.913C33.6371 726.065 16.2449 774.311 7.31322 810.402C-27.6481 952.044 75.8813 1105.79 211.264 1133.49C356.514 1163.21 525.036 1044.98 574.801 903.498L574.792 903.497ZM527.735 436.3C525.957 430.881 522.417 425.788 517.465 421.55C514.528 419.037 511.231 416.919 507.657 415.264C479.353 402.099 444.186 413.628 424.033 442.675C401.319 475.425 413.46 513.504 435.581 536.697C438.343 539.606 441.256 542.371 444.228 544.915C470.903 567.746 505.491 575.026 539.16 564.889C574.371 554.283 603.711 526.23 617.609 489.858C620.803 481.51 626.176 463.063 626.092 446.902L626.019 434.763L635.229 441.964C652.546 455.517 671.978 466.007 692.962 473.157L697.671 474.764L696.124 479.762C679.066 535 627.489 607.401 537.869 629.68L536.294 629.94L536.124 630.112L534.367 630.511C528.908 631.753 523.79 632.744 518.292 633.567C473.489 636.556 428.289 621.596 394.272 592.483C369.988 571.7 353.439 545.23 346.409 515.92C337.471 478.677 344.93 440.012 367.413 407.043C392.021 370.976 431.445 345.416 473.438 338.616C508.541 336.254 545.162 350.103 561.788 364.333L563.159 365.553C583.428 384.168 593.39 408.715 593.646 440.615C593.945 479.505 564.354 512.056 545.634 523.456C515.792 541.602 487.209 541.227 462.963 522.403C460.834 520.74 458.738 519.061 456.748 517.358C443.143 505.714 429.463 489.268 444.573 465.332C462.065 437.609 489.031 451.102 501.995 457.596C512.216 462.72 521.281 455.272 522.294 454.394C525.988 451.189 529.968 443.105 527.737 436.302L527.735 436.3ZM130.102 1056.22C38.205 977.897 -3.1743 832.102 86.8811 714.945C100.296 700.796 115.964 686.333 134.734 670.72C137.819 668.147 140.934 665.714 144.507 663.038C196.838 630.055 253.952 617.959 314.243 627.069C346.234 631.906 374.174 644.394 397.293 664.181C423.409 686.533 443.32 718.054 456.479 757.892C479.718 828.247 467.823 892.73 422.047 944.401C371.114 1001.87 312.726 1022.83 248.493 1006.67C221.867 999.973 198.863 988.464 180.113 972.417C146.558 943.697 129.926 902.36 133.303 856.057C138.635 782.939 198.511 722.559 269.661 718.599C295.696 717.157 319.212 724.751 337.695 740.57C367.476 766.059 378.342 808.354 366.064 850.94C360.243 871.132 346.799 888.883 329.161 899.664C312.979 909.561 294.784 912.823 277.962 908.846C269.193 906.781 260.812 902.484 253.724 896.419C232.547 878.294 226.397 848.989 239.117 826.722C243.368 819.302 252.43 811.15 263.108 809.706C266.906 809.193 271.49 810.851 275.336 814.142C278.321 816.696 283.412 822.46 283.82 832.281C284.103 839.118 286.145 844.355 289.748 847.439C294.761 851.729 301.539 850.891 306.357 849.439C322.272 844.641 320.892 821.182 320.108 814.12C318.8 802.533 313.341 792.329 304.337 784.622C285.744 768.71 257.066 766.758 234.606 779.896C217.925 789.639 205.752 808.293 201.225 831.091C195.212 861.384 203.223 893.371 222.13 914.563C225.625 918.46 229.345 922.122 233.202 925.423C275.327 961.475 334.105 955.811 372.978 911.966C408.821 871.535 417.46 810.381 394.455 759.783C385.154 739.337 372.782 722.426 357.673 709.495C332.747 688.161 301.328 678.651 266.851 682.001C205.242 687.987 153.706 721.809 125.456 774.809C93.7723 834.281 97.2753 906.573 134.826 968.192C142.715 981.152 152.838 992.944 164.912 1003.28C201.611 1034.69 246.666 1044.29 260.924 1045.32C309.167 1048.86 376.366 1034.9 417.744 995.785C458.305 957.441 485.808 913.179 497.286 867.78L500.063 856.811L506.985 865.002C510.292 868.92 513.942 872.587 517.814 875.902C525.957 882.871 535.244 888.416 545.435 892.379L550.128 894.201L548.31 899.192C489.19 1061.16 277.584 1181.9 130.1 1056.22L130.102 1056.22ZM682.122 683.572C707.511 705.301 719.641 735.763 715.43 767.145C707.642 825.038 655.913 870.796 595.132 873.549C572.799 874.558 549.751 866.842 533.455 852.894C524.861 845.539 518.539 836.706 515.191 827.383C504.266 796.913 521.847 752.704 550.7 738.15C570.161 728.337 596.588 730.991 612.183 744.34C615.714 747.361 618.559 750.813 620.662 754.609C625.779 763.862 626.175 774.013 621.741 782.453C618.127 789.331 609.796 798.153 590.645 801.027C584.89 801.901 580.27 803.342 578.429 804.301C577.267 804.914 576.414 805.999 575.873 807.531C574.826 810.554 575.272 814.586 577.036 818.065C577.543 819.066 578.342 820.047 579.436 820.983C582.724 823.798 588.104 825.751 592.521 825.745C620.514 825.753 648.574 806.148 655.096 782.064C660.738 761.151 653.365 739.455 635.341 724.029C616.252 707.691 588.927 701.505 562.278 707.473C531.341 714.419 512.187 734.169 501.565 749.507L494.329 759.97L491.698 748.13C485.206 719.006 458.637 675.737 447.831 665.176L434.834 652.489L453.115 655.537C469.234 658.228 500.533 661.495 516.527 659.978C523.055 659.357 529.758 658.657 536.495 657.943C568.529 654.539 601.638 651.038 626.388 656.54C647.753 661.343 667.048 670.671 682.122 683.572ZM651.556 634.299L650.203 634.594L648.921 634.221C639.021 631.391 628.594 629.241 617.926 627.839L603.893 625.982L616.192 617.721C662.913 586.349 700.475 536.74 716.693 485.017L718.275 479.982L723.275 480.837C734.385 482.733 745.658 483.704 756.472 483.738C756.811 483.71 791.239 481.766 822.571 471.282L833.527 467.607L829.076 478.389C803.134 541.008 742.9 614.858 651.554 634.299L651.556 634.299Z" fill="white"/>
</g>
</svg>
