<svg width="1032" height="969" viewBox="0 0 1032 969" fill="none" xmlns="http://www.w3.org/2000/svg">
<g style="mix-blend-mode:hard-light" opacity="0.2">
<path fill-rule="evenodd" clip-rule="evenodd" d="M477.871 154.419L475.336 158.129L471.183 156.822C452.862 151.096 433.708 148.602 414.248 149.439C387.506 150.585 355.652 160.186 330.967 175.051C302.647 192.111 272.985 233.68 268.416 263.942C263.54 296.013 269.992 325.288 287.566 350.92C291.004 355.935 294.922 360.857 299.178 365.511L306.369 373.378L292.731 375.026C265.895 378.123 238.008 387.17 212.197 399.737C181.697 414.586 159.786 430.887 135.282 452.891C84.0854 498.864 53.0239 521.433 -9.12986 559.333C-78.2433 609.833 -128.171 681.513 -137.088 763.612C-141.772 806.593 -131.993 847.366 -108.769 881.508C-92.9307 904.262 -86.3174 910.681 -64.4297 927.468C-58.1454 932.247 -51.8858 936.561 -45.31 940.639C-6.63653 964.685 35.2165 973.386 79.1194 966.487C109.241 961.742 149.959 943.971 177.133 925.749C188.177 918.243 199.057 909.86 209.437 900.836C248.067 867.254 272.255 806.548 276.171 759.356C277.31 745.417 274.857 701.287 249.947 664.954C242.942 654.737 234.639 645.887 225.284 638.642C178.084 602.097 119.026 593.049 63.2266 613.825C7.60993 634.534 -34.4737 682.444 -49.3838 741.99C-57.579 774.735 -52.9438 805.108 -35.9744 829.858C-26.7321 843.337 -14.0308 854.854 1.76141 864.055C43.5731 888.416 99.3679 884.416 140.574 854.086C186.709 820.157 199.535 765.405 171.085 723.912C169.117 721.041 166.933 718.222 164.61 715.537C149.462 698.042 124.702 688.741 98.4239 690.664C75.2892 692.359 55.0923 702.538 42.9831 718.608C27.8343 738.71 25.6919 766.203 37.8675 783.963C43.3377 791.94 51.2298 797.112 60.7066 798.932C66.8722 800.124 87.497 802.876 94.0719 788.486C96.9024 782.257 97.1002 776.815 94.5822 773.141C92.4521 770.035 88.3569 768.054 82.7433 767.392C76.2116 766.639 70.729 763.458 67.299 758.455C64.5195 754.4 63.5144 749.737 64.6007 745.988C67.3944 736.294 75.9508 728.507 83.1923 725.087C104.561 715 130.014 722.171 143.715 742.155C148.759 749.513 151.791 758.108 152.43 766.994C154.993 801.536 126.089 836.28 88 844.436C48.8635 852.804 12.6429 840.621 -6.54664 812.633C-19.0925 794.335 -23.1622 770.699 -18.0115 746.063C-4.36412 680.777 58.3405 629.52 124.72 629.383C165.583 629.297 199.818 646.382 221.133 677.441C233.986 696.187 242.007 719.953 244.329 746.188C249.75 807.352 223.448 858.352 163.891 902.14C110.962 941.057 51.2436 947.801 -8.77889 921.653C-41.1789 907.549 -65.9672 888.212 -82.4479 864.175C-98.5681 840.664 -106.643 812.742 -106.419 781.227C-105.945 718.696 -82.7083 661.791 -37.3133 612.131C6.52255 564.186 82.2835 533.218 151.208 535.057C191.472 536.133 247.331 548.9 284.835 603.598C289.519 610.429 293.819 617.83 297.641 625.599C298.952 628.239 300.082 630.925 301.117 633.619L301.427 634.411L301.463 635.254C302.333 657.089 308.663 677.414 320.259 695.665C320.735 696.421 321.235 697.182 321.75 697.932C335.343 717.757 360.359 735.839 388.672 746.332C413.897 755.676 449.907 759.691 477.103 752.067C506.877 743.696 653.474 693.136 615.682 518.394L612.894 505.524L624.355 512.187C630.099 515.539 636.077 518.619 642.508 521.541C646.878 523.954 651.432 526.358 655.324 528.228C707.336 553.259 800.61 542.356 858.287 516.549C868.058 512.183 877.666 507.428 886.856 502.396C954.525 465.446 983.849 423.332 1001.85 390.775C1072.39 262.981 1012.29 87.7629 888.717 26.0701C756.132 -40.1207 562.661 30.5917 477.861 154.416L477.871 154.419ZM402.041 617.839C402.351 623.533 404.448 629.365 408.132 634.737C410.316 637.922 412.951 640.819 415.974 643.34C439.895 663.36 476.857 661.298 503.864 638.441C534.306 612.669 532.463 572.753 517.117 544.643C515.204 541.121 513.109 537.698 510.899 534.473C491.059 505.538 459.539 489.58 424.386 490.684C387.621 491.843 351.999 511.369 329.132 542.915C323.88 550.154 313.902 566.587 309.787 582.218L306.707 593.963L299.68 584.63C286.471 567.07 270.425 551.924 252.011 539.602L247.88 536.835L250.672 532.407C281.488 483.452 350.103 426.828 442.453 428.433L444.041 428.589L444.251 428.466L446.051 428.535C451.647 428.743 456.847 429.107 462.372 429.731C506.424 438.405 546.201 464.518 571.501 501.417C589.561 527.759 598.675 557.597 597.857 587.722C596.822 626.002 579.58 661.426 549.304 687.47C516.172 715.958 471.456 730.473 429.129 726.206C394.609 719.429 362.831 696.603 350.465 678.567L349.457 677.035C334.711 653.824 331.462 627.543 339.496 596.664C349.303 559.021 386.335 535.216 407.376 529.035C440.913 519.207 468.425 526.945 486.957 551.384C488.582 553.539 490.171 555.703 491.651 557.861C501.769 572.619 510.714 592.034 489.905 611.256C465.813 633.521 443.268 613.529 432.432 603.911C423.889 596.324 413.2 601.18 411.993 601.766C407.593 603.909 401.65 610.69 402.039 617.837L402.041 617.839ZM947.053 121.652C1015.49 221.016 1017.61 372.521 900.208 462.448C883.577 472.653 864.689 482.58 842.505 492.818C838.857 494.507 835.217 496.053 831.071 497.716C771.961 516.072 713.653 513.018 657.781 488.66C628.136 475.734 604.389 456.462 587.195 431.383C567.771 403.053 556.722 367.469 554.353 325.593C550.17 251.638 578.399 192.421 636.029 154.324C700.147 111.952 761.985 106.774 819.835 138.956C843.814 152.3 863.047 169.353 876.993 189.691C901.949 226.091 907.283 270.312 892.001 314.165C867.869 383.416 794.359 426.288 724.605 411.753C699.083 406.428 678.34 393.025 664.593 372.976C642.443 340.67 642.927 297.012 665.842 259.046C676.707 241.044 694.301 227.367 714.137 221.505C732.336 216.121 750.758 217.665 765.975 225.847C773.908 230.104 780.889 236.417 786.161 244.105C801.911 267.077 800.244 296.97 782.177 315.196C776.145 321.266 765.275 326.803 754.586 325.441C750.784 324.957 746.787 322.173 743.926 318.001C741.706 314.765 738.284 307.883 740.44 298.291C741.941 291.615 741.329 286.029 738.649 282.12C734.92 276.683 728.156 275.743 723.126 275.903C706.506 276.431 701.75 299.446 700.674 306.469C698.929 318 701.554 329.265 708.25 339.032C722.078 359.2 749.273 368.486 774.378 361.591C793.02 356.484 809.621 341.607 819.912 320.754C833.584 293.045 834.15 260.08 821.389 234.732C819.024 230.066 816.381 225.569 813.513 221.385C782.182 175.691 723.936 165.995 675.006 198.315C629.888 228.119 605.668 284.961 614.755 339.771C618.431 361.92 625.991 381.447 637.229 397.836C655.767 424.875 683.646 442.169 717.818 447.829C778.882 457.945 837.442 438.574 878.489 394.67C924.531 345.4 939.915 274.667 919.64 205.458C915.383 190.904 908.667 176.902 899.687 163.804C872.392 123.995 831.366 103.094 817.861 98.4199C772.18 82.5535 703.647 78.6938 653.525 105.801C604.392 132.372 566.336 168.029 543.464 208.918L537.934 218.797L533.373 209.099C531.197 204.462 528.623 199.978 525.743 195.777C519.686 186.944 512.156 179.191 503.341 172.733L499.28 169.762L502.333 165.411C601.485 24.2162 837.225 -37.8102 947.055 121.654L947.053 121.652ZM317.105 339.155C298.222 311.615 294.413 279.061 306.627 249.834C329.179 195.923 391.024 165.073 450.448 178.098C472.283 182.886 492.543 196.286 504.663 213.965C511.054 223.286 514.868 233.45 515.681 243.319C518.324 275.57 489.865 313.736 458.217 320.349C436.872 324.805 412.035 315.423 400.436 298.505C397.81 294.675 395.959 290.606 394.912 286.397C392.371 276.139 394.624 266.232 401.099 259.223C406.375 253.512 416.712 247.141 435.956 249.306C441.742 249.947 446.578 249.748 448.606 249.296C449.888 249.004 450.993 248.176 451.913 246.836C453.709 244.186 454.326 240.176 453.525 236.361C453.295 235.263 452.777 234.109 451.964 232.923C449.519 229.356 444.829 226.081 440.561 224.947C413.524 217.715 381.33 229.412 368.778 250.992C357.9 269.737 359.39 292.596 372.794 312.148C386.992 332.854 411.78 345.88 439.07 346.993C470.757 348.267 494.385 334.132 508.627 322.058L518.332 313.818L517.8 325.933C516.51 355.741 530.941 404.392 538.637 417.381L547.899 432.989L531.031 425.328C516.16 418.569 486.775 407.337 470.933 404.675C464.466 403.59 457.81 402.537 451.117 401.488C419.29 396.51 386.401 391.348 363.923 379.647C344.533 369.495 328.316 355.506 317.105 339.155ZM333.839 394.637L335.222 394.7L336.364 395.391C345.191 400.679 354.705 405.446 364.646 409.554L377.719 414.969L363.694 419.774C310.421 438.022 261.261 476.248 232.168 522.023L229.333 526.478L224.725 524.362C214.486 519.664 203.849 515.818 193.412 512.994C193.077 512.933 159.318 505.927 126.332 507.969L114.795 508.691L121.894 499.426C163.207 445.635 240.56 389.844 333.841 394.636L333.839 394.637Z" fill="white"/>
</g>
</svg>
