<svg width="764" height="464" viewBox="0 0 764 464" fill="none" xmlns="http://www.w3.org/2000/svg">
<mask id="mask0_2003_11317" style="mask-type:alpha" maskUnits="userSpaceOnUse" x="0" y="0" width="764" height="464">
<rect width="764" height="464" fill="#D9D9D9"/>
</mask>
<g mask="url(#mask0_2003_11317)">
<path opacity="0.5" fill-rule="evenodd" clip-rule="evenodd" d="M609.014 615.868L605.293 613.334L606.603 609.18C612.347 590.859 614.848 571.706 614.009 552.246C612.86 525.504 603.229 493.65 588.32 468.964C571.209 440.645 529.514 410.982 499.161 406.414C466.994 401.537 437.63 407.99 411.921 425.564C406.892 429.002 401.954 432.919 397.287 437.176L389.396 444.367L387.743 430.728C384.637 403.893 375.562 376.006 362.958 350.194C348.063 319.695 331.713 297.784 309.644 273.28C263.532 222.083 240.896 191.022 202.881 128.868C152.229 59.7544 80.3339 9.82673 -2.0123 0.909924C-45.1234 -3.77476 -86.0184 6.0049 -120.263 29.229C-143.086 45.0669 -149.524 51.6802 -166.362 73.568C-171.155 79.8522 -175.482 86.1118 -179.572 92.6877C-203.691 131.361 -212.418 173.214 -205.498 217.117C-200.739 247.238 -182.914 287.957 -164.638 315.131C-157.109 326.175 -148.701 337.055 -139.65 347.434C-105.967 386.064 -45.0778 410.253 2.25578 414.169C16.237 415.308 60.5004 412.855 96.9423 387.944C107.19 380.94 116.067 372.637 123.334 363.281C159.988 316.081 169.064 257.024 148.225 201.224C127.454 145.608 79.3993 103.524 19.6742 88.6138C-13.169 80.4186 -43.6336 85.0538 -68.4575 102.023C-81.9779 111.266 -93.529 123.967 -102.758 139.759C-127.192 181.571 -123.18 237.366 -92.759 278.572C-58.7273 324.706 -3.81143 337.532 37.8073 309.082C40.6862 307.115 43.5142 304.931 46.2073 302.608C63.7544 287.459 73.0835 262.7 71.1546 236.422C69.4545 213.287 59.2452 193.09 43.1272 180.981C22.9645 165.832 -4.61119 163.69 -22.4246 175.865C-30.426 181.335 -35.6138 189.227 -37.4387 198.704C-38.6346 204.87 -41.3943 225.495 -26.9613 232.069C-20.7135 234.9 -15.2554 235.098 -11.5704 232.58C-8.45444 230.45 -6.46786 226.355 -5.80388 220.741C-5.04878 214.209 -1.85791 208.727 3.15959 205.297C7.22683 202.517 11.9039 201.512 15.6647 202.598C25.388 205.392 33.1975 213.948 36.6281 221.19C46.7458 242.559 39.5528 268.011 19.5091 281.713C12.1291 286.757 3.50793 289.789 -5.40464 290.428C-40.0504 292.991 -74.8996 264.086 -83.0801 225.998C-91.4727 186.861 -79.253 150.641 -51.1812 131.451C-32.8277 118.905 -9.12075 114.835 15.5894 119.986C81.0721 133.634 132.483 196.338 132.621 262.717C132.706 303.581 115.57 337.816 84.4181 359.131C65.6151 371.984 41.7777 380.005 15.4635 382.327C-45.8842 387.748 -97.0382 361.446 -140.957 301.889C-179.991 248.96 -186.756 189.241 -160.53 129.219C-146.383 96.8187 -126.988 72.0304 -102.878 55.5497C-79.2966 39.4295 -51.2901 31.3551 -19.6806 31.5789C43.0382 32.0529 100.115 55.2893 149.924 100.684C198.013 144.52 229.074 220.281 227.23 289.206C226.151 329.47 213.346 385.328 158.483 422.833C151.631 427.516 144.208 431.817 136.416 435.639C133.768 436.949 131.073 438.08 128.371 439.114L127.578 439.425L126.731 439.46C104.831 440.331 84.4452 446.66 66.139 458.256C65.3805 458.733 64.6169 459.233 63.8654 459.747C43.9801 473.341 25.8438 498.356 15.319 526.67C5.94688 551.895 1.92032 587.905 9.56716 615.101C17.9638 644.875 68.6755 791.471 243.943 753.679L256.852 750.892L250.169 762.353C246.807 768.097 243.717 774.074 240.787 780.506C238.367 784.876 235.955 789.43 234.08 793.321C208.973 845.333 219.909 938.608 245.794 996.285C250.173 1006.06 254.942 1015.66 259.99 1024.85C297.051 1092.52 339.291 1121.85 371.946 1139.84C500.125 1210.38 675.87 1150.29 737.749 1026.71C804.139 894.13 733.214 700.659 609.017 615.859L609.014 615.868ZM144.199 540.038C138.488 540.349 132.638 542.446 127.251 546.129C124.056 548.314 121.15 550.948 118.622 553.971C98.5415 577.893 100.609 614.855 123.535 641.862C149.385 672.304 189.42 670.461 217.615 655.115C221.148 653.202 224.582 651.106 227.816 648.896C256.838 629.057 272.844 597.537 271.737 562.384C270.575 525.619 250.99 489.997 219.348 467.13C212.088 461.878 195.606 451.899 179.927 447.785L168.147 444.704L177.508 437.677C195.12 424.469 210.312 408.422 222.671 390.009L225.447 385.877L229.888 388.669C278.99 419.486 335.785 488.101 334.175 580.451L334.019 582.039L334.142 582.248L334.073 584.049C333.864 589.645 333.499 594.845 332.873 600.37C324.173 644.421 297.981 684.199 260.972 709.498C234.551 727.559 204.622 736.673 174.407 735.855C136.011 734.82 100.481 717.577 74.3588 687.302C45.7851 654.17 31.226 609.454 35.5057 567.126C42.3031 532.607 65.1982 500.828 83.288 488.463L84.8253 487.455C108.106 472.709 134.466 469.46 165.438 477.493C203.194 487.301 227.071 524.332 233.271 545.374C243.128 578.911 235.366 606.423 210.854 624.955C208.692 626.58 206.522 628.168 204.357 629.649C189.555 639.767 170.081 648.712 150.802 627.903C128.47 603.811 148.522 581.266 158.169 570.429C165.779 561.887 160.909 551.197 160.32 549.991C158.171 545.591 151.37 539.648 144.201 540.036L144.199 540.038ZM641.88 1085.05C542.216 1153.49 390.255 1155.61 300.058 1038.21C289.822 1021.57 279.865 1002.69 269.597 980.503C267.902 976.855 266.351 973.215 264.683 969.068C246.273 909.958 249.336 851.65 273.767 795.779C286.732 766.134 306.062 742.387 331.216 725.193C359.632 705.769 395.323 694.72 437.325 692.351C511.502 688.167 570.897 716.397 609.109 774.027C651.609 838.145 656.802 899.983 624.523 957.833C611.14 981.812 594.035 1001.04 573.635 1014.99C537.126 1039.95 492.772 1045.28 448.787 1030C379.328 1005.87 336.326 932.356 350.905 862.603C356.246 837.081 369.69 816.337 389.799 802.59C422.202 780.441 465.991 780.925 504.072 803.84C522.128 814.705 535.846 832.298 541.726 852.134C547.126 870.334 545.577 888.756 537.371 903.972C533.101 911.906 526.769 918.886 519.058 924.158C496.016 939.908 466.034 938.241 447.753 920.174C441.664 914.142 436.111 903.273 437.477 892.584C437.962 888.782 440.755 884.784 444.939 881.924C448.185 879.704 455.088 876.282 464.709 878.438C471.405 879.939 477.008 879.326 480.928 876.647C486.382 872.918 487.325 866.154 487.164 861.123C486.635 844.504 463.55 839.748 456.506 838.672C444.941 836.927 433.642 839.552 423.845 846.248C403.617 860.076 394.303 887.271 401.218 912.375C406.341 931.017 421.262 947.619 442.179 957.909C469.971 971.582 503.034 972.148 528.459 959.386C533.14 957.022 537.65 954.379 541.846 951.51C587.678 920.18 597.403 861.934 564.986 813.004C535.092 767.886 478.079 743.666 423.104 752.752C400.889 756.429 381.302 763.989 364.864 775.226C337.744 793.765 320.398 821.644 314.721 855.816C304.574 916.88 324.003 975.44 368.04 1016.49C417.458 1062.53 488.404 1077.91 557.821 1057.64C572.419 1053.38 586.463 1046.66 599.6 1037.68C639.529 1010.39 660.493 969.363 665.181 955.858C681.096 910.178 684.967 841.645 657.778 791.522C631.127 742.389 595.363 704.334 554.35 681.461L544.442 675.931L554.169 671.371C558.821 669.194 563.318 666.621 567.531 663.741C576.391 657.684 584.167 650.154 590.644 641.339L593.624 637.278L597.988 640.33C739.609 739.483 801.821 975.223 641.877 1085.05L641.88 1085.05ZM423.722 455.103C451.345 436.22 483.997 432.411 513.312 444.625C567.385 467.177 598.328 529.022 585.263 588.446C580.461 610.28 567.02 630.54 549.289 642.66C539.94 649.052 529.745 652.866 519.846 653.679C487.498 656.322 449.217 627.863 442.585 596.215C438.115 574.87 447.525 550.033 464.494 538.434C468.336 535.808 472.417 533.956 476.638 532.91C486.927 530.369 496.864 532.621 503.894 539.096C509.622 544.372 516.013 554.709 513.841 573.954C513.198 579.74 513.398 584.576 513.851 586.604C514.144 587.886 514.975 588.991 516.319 589.911C518.977 591.707 522.998 592.323 526.826 591.522C527.926 591.293 529.084 590.775 530.273 589.962C533.851 587.517 537.137 582.827 538.274 578.559C545.527 551.521 533.795 519.328 512.15 506.776C493.349 495.898 470.421 497.387 450.811 510.792C430.042 524.99 416.976 549.777 415.86 577.068C414.582 608.754 428.76 632.383 440.87 646.625L449.135 656.33L436.983 655.797C407.086 654.508 358.289 668.939 345.261 676.635L329.606 685.896L337.29 669.029C344.069 654.158 355.335 624.773 358.004 608.931C359.093 602.464 360.149 595.808 361.201 589.114C366.194 557.288 371.372 524.399 383.108 501.92C393.291 482.53 407.322 466.314 423.722 455.103ZM368.073 471.836L368.01 473.22L367.317 474.362C362.012 483.189 357.231 492.703 353.111 502.644L347.68 515.716L342.86 501.692C324.558 448.419 286.216 399.258 240.303 370.166L235.835 367.33L237.957 362.723C242.669 352.484 246.528 341.847 249.36 331.409C249.421 331.075 256.447 297.316 254.399 264.33L253.675 252.793L262.968 259.892C316.922 301.205 372.88 378.558 368.073 471.838L368.073 471.836Z" fill="#B7C0C5" fill-opacity="0.5"/>
</g>
</svg>
