<svg width="0" height="0">
	<symbol xmlns="http://www.w3.org/2000/svg" id="rings" viewBox="0 0 21 15">
		<circle cx="8.02637" cy="7.5" r="7" fill="none"/>
		<circle cx="13.0264" cy="7.5" r="7" fill="none"/>
	</symbol>

	<symbol xmlns="http://www.w3.org/2000/svg" id="lupa" viewBox="0 0 17 17">
		<path d="M16 16L12.4167 12.4167M14.3333 7.66667C14.3333 11.3486 11.3486 14.3333 7.66667 14.3333C3.98477 14.3333 1 11.3486 1 7.66667C1 3.98477 3.98477 1 7.66667 1C11.3486 1 14.3333 3.98477 14.3333 7.66667Z" fill="none" stroke-linecap="round" stroke-linejoin="round"/>
	</symbol>

	<symbol xmlns="http://www.w3.org/2000/svg" id="user" viewBox="0 0 15 17">
		<path d="M7.5 9.33333C9.22391 9.33333 10.8772 10.0357 12.0962 11.286C13.3152 12.5362 14 14.2319 14 16H1C1 14.2319 1.68482 12.5362 2.90381 11.286C4.12279 10.0357 5.77609 9.33333 7.5 9.33333ZM7.5 9.33333C9.74366 9.33333 11.5625 7.46785 11.5625 5.16667C11.5625 2.86548 9.74366 1 7.5 1C5.25634 1 3.4375 2.86548 3.4375 5.16667C3.4375 7.46785 5.25634 9.33333 7.5 9.33333Z" fill="none" stroke-linecap="round" stroke-linejoin="round"/>
	</symbol>

	<symbol xmlns="http://www.w3.org/2000/svg" id="favorite" viewBox="0 0 19 17">
		<path d="M15.45 10.1667C16.7165 8.95 18 7.49167 18 5.58333C18 4.36776 17.5075 3.20197 16.6307 2.34243C15.754 1.48289 14.5649 1 13.325 1C11.829 1 10.775 1.41667 9.5 2.66667C8.225 1.41667 7.171 1 5.675 1C4.43511 1 3.24601 1.48289 2.36928 2.34243C1.49254 3.20197 1 4.36776 1 5.58333C1 7.5 2.275 8.95833 3.55 10.1667L9.5 16L15.45 10.1667Z" fill="none" stroke-linecap="round" stroke-linejoin="round"/>
	</symbol>

	<symbol xmlns="http://www.w3.org/2000/svg" id="cart" viewBox="0 0 16 17">
		<path d="M3.625 5.16667L4.5 4.47222C4.5 3.77778 4.86875 2.33453 5.52513 1.81359C6.1815 1.29266 7.07174 1 8 1C8.92826 1 9.8185 1.29266 10.4749 1.81359C11.1313 2.33453 11.5 3.77778 11.5 4.47222L12.375 5.16667M1 4.33333V14.5417C1 14.9284 1.16389 15.2994 1.45561 15.5729C1.74733 15.8464 2.143 16 2.55556 16H13.4444C13.857 16 14.2527 15.8464 14.5444 15.5729C14.8361 15.2994 15 14.9284 15 14.5417V4.33333H1Z" fill="none" stroke-linecap="round" stroke-linejoin="round"/>
	</symbol>

	<symbol xmlns="http://www.w3.org/2000/svg" id="ic_soc1" viewBox="0 0 30 30">
		<path d="M15 3.51807C8.37284 3.51807 3 8.89091 3 15.5181C3 17.9428 3.72099 20.2045 4.96049 22.0909L3.41481 27.3255L8.85185 25.8193C10.6494 26.8958 12.7531 27.5131 15 27.5131C21.6272 27.5131 27 22.1403 27 15.5131C27 8.89091 21.6272 3.51807 15 3.51807Z"/>
		<path d="M21.5922 18.8115C21.5774 18.6535 21.4835 18.5152 21.3403 18.451C20.3724 18.0066 19.3996 17.5622 18.4317 17.1177C18.323 17.0683 18.1897 17.093 18.1107 17.1868L16.7971 18.6683C16.6934 18.7868 16.5304 18.8264 16.3872 18.7671C15.7058 18.4856 14.7872 18.0115 13.8588 17.2115C12.7477 16.2585 12.0959 15.2362 11.7304 14.5696C11.9132 14.4461 12.4119 14.0757 12.6342 13.3893C12.6342 13.3844 12.6391 13.3794 12.6391 13.3794C12.7774 12.9548 12.7477 12.4955 12.5946 12.0757C12.3329 11.3794 11.8095 10.0313 11.607 9.82389C11.5724 9.78932 11.5329 9.75475 11.5329 9.75475C11.3848 9.62142 11.1922 9.54734 10.9897 9.53747C10.9206 9.53253 10.8465 9.53253 10.7675 9.53253C10.5403 9.52759 10.3379 9.52759 10.1897 9.54734C9.76995 9.6066 9.46378 9.88808 9.27119 10.1251C9.03909 10.4066 8.76255 10.8264 8.57983 11.3794C8.56502 11.4288 8.5502 11.4733 8.53539 11.5227C8.33292 12.2239 8.37242 12.9745 8.6144 13.6659C8.84156 14.3128 9.17242 15.0831 9.67119 15.898C10.5156 17.2856 11.4342 18.1449 12.0564 18.7128C12.7576 19.3597 13.6267 20.1548 15.0045 20.8165C16.2786 21.4288 17.4342 21.656 18.2095 21.7498C18.5255 21.7794 19.1082 21.7844 19.7749 21.5325C20.0811 21.414 20.3379 21.2708 20.5453 21.1177C21.0934 20.7276 21.4786 20.1399 21.5774 19.4782C21.5774 19.4733 21.5774 19.4683 21.5774 19.4634C21.6119 19.2115 21.607 18.9943 21.5922 18.8115Z" fill="white"/>
	</symbol>

	<symbol xmlns="http://www.w3.org/2000/svg" id="ic_soc2" viewBox="0 0 30 30">
		<path d="M28.0408 6.52126L24.0823 25.1898C23.7836 26.5074 23.0048 26.8352 21.898 26.2146L15.8665 21.7699L12.9562 24.5691C12.6343 24.8911 12.3648 25.1606 11.7441 25.1606L12.1774 19.0177L23.3562 8.91628C23.8422 8.483 23.2508 8.24287 22.6008 8.67621L8.78102 17.378L2.83147 15.5159C1.53733 15.1118 1.51395 14.2217 3.1008 13.601L26.3719 4.6357C27.4493 4.23168 28.3922 4.87572 28.0408 6.52126Z"/>
	</symbol>

	<symbol xmlns="http://www.w3.org/2000/svg" id="ic_soc3" viewBox="0 0 30 30">
		<path d="M28.8621 8.2654H24.1561C23.964 8.26539 23.7756 8.3192 23.6107 8.42107C23.4459 8.52295 23.3109 8.66909 23.22 8.84395C23.22 8.84395 21.3431 12.4151 20.7402 13.6179C19.1183 16.8537 18.068 15.8379 18.068 14.3361V9.15809C18.068 8.7254 17.9017 8.31043 17.6055 8.00446C17.3094 7.6985 16.9077 7.52662 16.4889 7.52662H12.9507C12.4688 7.4896 11.9858 7.58047 11.5475 7.79059C11.1092 8.0007 10.7302 8.32309 10.4464 8.72713C10.4464 8.72713 12.2431 8.42701 12.2431 10.9281C12.2431 11.5483 12.274 13.3324 12.3022 14.8288C12.3075 15.0494 12.2472 15.2662 12.1294 15.4502C12.0116 15.6342 11.842 15.7764 11.6435 15.8577C11.445 15.9389 11.2272 15.9553 11.0194 15.9045C10.8116 15.8538 10.6239 15.7384 10.4816 15.574C9.03332 13.493 7.83368 11.2388 6.90872 8.86056C6.82928 8.68265 6.70212 8.53201 6.54231 8.42652C6.38251 8.32103 6.19677 8.26511 6.00713 8.2654C4.98656 8.2654 2.9443 8.2654 1.73147 8.2654C1.61386 8.26457 1.49782 8.29325 1.39331 8.34898C1.28879 8.40471 1.19894 8.48582 1.13146 8.58534C1.06399 8.68486 1.02091 8.79982 1.00592 8.92034C0.990936 9.04086 1.00449 9.16333 1.04543 9.27724C2.34373 12.9565 7.93637 24.5186 14.3198 24.5186H17.0066C17.2881 24.5186 17.5581 24.403 17.7572 24.1974C17.9562 23.9917 18.068 23.7128 18.068 23.4219V21.7458C18.0681 21.5355 18.1276 21.3299 18.2393 21.1541C18.3511 20.9784 18.5102 20.8403 18.697 20.7568C18.8838 20.6733 19.0901 20.6481 19.2906 20.6843C19.4911 20.7205 19.6769 20.8165 19.8253 20.9605L23.0412 24.0821C23.33 24.3625 23.7114 24.5185 24.1077 24.5186H28.3307C30.3675 24.5186 30.3675 23.0584 29.257 21.9285C28.4755 21.1333 25.6554 18.0623 25.6554 18.0623C25.4139 17.8038 25.2698 17.4646 25.2493 17.1059C25.2287 16.7473 25.333 16.3929 25.5433 16.1068C26.4548 14.8675 27.9458 12.8388 28.5781 11.9697C29.4424 10.7819 31.0066 8.2654 28.8621 8.2654Z"/>
	</symbol>

	<symbol xmlns="http://www.w3.org/2000/svg" id="ic_soc4" viewBox="0 0 30 30">
		<path d="M27.9132 8.48952C27.6032 7.32239 26.6899 6.40311 25.5302 6.0911C23.4284 5.52432 14.9999 5.52432 14.9999 5.52432C14.9999 5.52432 6.57152 5.52432 4.46953 6.09116C3.3099 6.40317 2.3966 7.32239 2.08664 8.48958C1.52344 10.6051 1.52344 15.0191 1.52344 15.0191C1.52344 15.0191 1.52344 19.4333 2.08664 21.5487C2.3966 22.7159 3.3099 23.5969 4.46953 23.9089C6.57152 24.4757 14.9999 24.4757 14.9999 24.4757C14.9999 24.4757 23.4284 24.4757 25.5302 23.9089C26.6899 23.5968 27.6032 22.7158 27.9132 21.5487C28.4764 19.4332 28.4764 15.0191 28.4764 15.0191C28.4764 15.0191 28.4764 10.6051 27.9132 8.48952Z"/>
		<path d="M12.2422 19.0267V11.0115L19.2867 15.0192L12.2422 19.0267Z" fill="white"/>
	</symbol>

	<symbol xmlns="http://www.w3.org/2000/svg" id="ic_soc5" viewBox="0 0 30 30">
		<path d="M30.7515 15.0001C30.7515 23.2837 24.0363 29.9989 15.7527 29.9989C7.4691 29.9989 0.753906 23.2837 0.753906 15.0001C0.753906 6.71648 7.4691 0.00128174 15.7527 0.00128174C24.0363 0.00128174 30.7515 6.71648 30.7515 15.0001Z" fill="white"/>
		<path d="M15.7499 6.10352e-05C7.46566 6.10352e-05 0.75 6.7159 0.75 14.9999C0.75 21.3548 4.70361 26.7873 10.2836 28.9729C10.1524 27.786 10.0339 25.9608 10.3357 24.6652C10.6082 23.4946 12.0946 17.2092 12.0946 17.2092C12.0946 17.2092 11.6458 16.3107 11.6458 14.9822C11.6458 12.8965 12.8547 11.3394 14.36 11.3394C15.6397 11.3394 16.2579 12.3002 16.2579 13.4523C16.2579 14.7394 15.4386 16.6634 15.0156 18.4465C14.6623 19.9396 15.7644 21.1572 17.2368 21.1572C19.903 21.1572 21.9523 18.3461 21.9523 14.2883C21.9523 10.6969 19.3715 8.18578 15.6867 8.18578C11.4187 8.18578 8.91346 11.387 8.91346 14.6953C8.91346 15.9846 9.41004 17.3669 10.0298 18.1184C10.1522 18.2669 10.1703 18.3972 10.1338 18.5486C10.0199 19.0225 9.76693 20.0412 9.71719 20.2497C9.65174 20.5243 9.49975 20.5826 9.21557 20.4503C7.34209 19.5782 6.17086 16.8394 6.17086 14.6394C6.17086 9.90762 9.60867 5.56231 16.0819 5.56231C21.2854 5.56231 25.3292 9.27006 25.3292 14.2254C25.3292 19.3951 22.0697 23.5554 17.5455 23.5554C16.0256 23.5554 14.5966 22.7658 14.1076 21.8331C14.1076 21.8331 13.3553 24.697 13.173 25.3989C12.8342 26.7018 11.9201 28.3349 11.3087 29.3311C12.7123 29.7657 14.2037 30 15.7499 30C24.0344 30 30.7501 23.2845 30.7501 14.9999C30.7501 6.7159 24.0344 6.10352e-05 15.7499 6.10352e-05Z"/>
	</symbol>

	<symbol xmlns="http://www.w3.org/2000/svg" id="ic_soc6" viewBox="0 0 30 30">
		<path d="M22.8416 1.37518H8.15801C4.688 1.37518 1.875 4.18818 1.875 7.65819V22.3418C1.875 25.8118 4.688 28.6248 8.15801 28.6248H22.8416C26.3116 28.6248 29.1246 25.8118 29.1246 22.3418V7.65819C29.1246 4.18818 26.3116 1.37518 22.8416 1.37518Z"/>
		<path d="M19.8941 6.75117C20.9286 6.75533 21.9195 7.16812 22.651 7.8996C23.3825 8.63108 23.7952 9.62198 23.7994 10.6564V19.3435C23.7952 20.378 23.3825 21.3689 22.651 22.1004C21.9195 22.8319 20.9286 23.2447 19.8941 23.2488H11.1051C10.0706 23.2447 9.07972 22.8319 8.34824 22.1004C7.61676 21.3689 7.20397 20.378 7.1998 19.3435V10.6564C7.20397 9.62198 7.61676 8.63108 8.34824 7.8996C9.07972 7.16812 10.0706 6.75533 11.1051 6.75117H19.8941ZM19.8941 4.93476H11.1051C7.95801 4.93476 5.38281 7.51288 5.38281 10.657V19.3435C5.38281 22.4906 7.96094 25.0658 11.1051 25.0658H19.8941C23.0412 25.0658 25.6164 22.4877 25.6164 19.3435V10.6564C25.6164 7.50937 23.0412 4.93417 19.8941 4.93417V4.93476Z" fill="white"/>
		<path d="M15.5002 11.6092C16.1708 11.6092 16.8264 11.8081 17.384 12.1806C17.9417 12.5532 18.3763 13.0828 18.6329 13.7024C18.8896 14.322 18.9567 15.0038 18.8259 15.6615C18.695 16.3193 18.3721 16.9235 17.8979 17.3977C17.4237 17.8719 16.8195 18.1948 16.1617 18.3257C15.504 18.4565 14.8222 18.3894 14.2026 18.1327C13.583 17.8761 13.0534 17.4415 12.6808 16.8839C12.3082 16.3262 12.1094 15.6707 12.1094 15C12.1105 14.101 12.4681 13.2392 13.1037 12.6035C13.7394 11.9679 14.6012 11.6103 15.5002 11.6092ZM15.5002 9.79279C14.4703 9.79279 13.4635 10.0982 12.6072 10.6704C11.7509 11.2425 11.0835 12.0558 10.6893 13.0073C10.2952 13.9588 10.1921 15.0058 10.393 16.0159C10.5939 17.026 11.0899 17.9538 11.8181 18.6821C12.5464 19.4103 13.4742 19.9063 14.4843 20.1072C15.4944 20.3081 16.5414 20.205 17.4929 19.8109C18.4444 19.4167 19.2577 18.7493 19.8298 17.893C20.402 17.0367 20.7074 16.0299 20.7074 15C20.7074 13.619 20.1588 12.2945 19.1823 11.3179C18.2057 10.3414 16.8812 9.79279 15.5002 9.79279Z" fill="white"/>
		<path d="M20.8205 10.7988C21.5023 10.7988 22.0551 10.2461 22.0551 9.56425C22.0551 8.88242 21.5023 8.32968 20.8205 8.32968C20.1387 8.32968 19.5859 8.88242 19.5859 9.56425C19.5859 10.2461 20.1387 10.7988 20.8205 10.7988Z" fill="white"/>
	</symbol>

	<symbol xmlns="http://www.w3.org/2000/svg" id="ic_play" viewBox="0 0 26 26">
		<rect width="26" height="26" rx="13"/>
		<path d="M17.5 13L10.75 18.6292L10.75 7.37083L17.5 13Z" fill="white"/>
	</symbol>

	<symbol xmlns="http://www.w3.org/2000/svg" id="ic_arrow" viewBox="0 0 9 14">
		<path d="M1.6001 1L7.6001 7L1.6001 13" stroke-width="1.5" stroke-linecap="round" fill="none"/>
	</symbol>

	<symbol xmlns="http://www.w3.org/2000/svg" id="ic_tab_info1" viewBox="0 0 34 32">
		<path d="M28.0202 19.6984C25.7744 22.8788 21.1262 25.9849 17.203 28.1093C12.9582 25.8107 7.86443 22.3629 5.88349 18.915C5.48695 18.2707 5.14587 17.6263 4.86035 16.9883" fill="none" stroke-miterlimit="1.5" stroke-linecap="round" stroke-linejoin="round"/>
		<path d="M3.97366 14.2949C3.38356 11.445 4.02005 8.93534 5.88311 7.42214C8.71305 5.12354 14.3728 5.12354 17.2026 9.2214C20.0324 5.12354 25.6922 5.12354 28.5221 7.42214C30.9554 9.3985 31.2965 13.0742 29.5453 16.9882" fill="none" stroke-miterlimit="1.5" stroke-linecap="round" stroke-linejoin="round"/>
		<path d="M4.86035 16.9882H9.84325L11.0952 15.1635L13.2625 18.8375L16.2513 12.729L18.2397 21.3471L21.1953 15.1073L23.3587 19.0702L24.7523 16.9882H29.5457" fill="none" stroke-miterlimit="1.5" stroke-linecap="round" stroke-linejoin="round"/>
	</symbol>

	<symbol xmlns="http://www.w3.org/2000/svg" id="ic_tab_info2" viewBox="0 0 34 32">
		<path fill-rule="evenodd" clip-rule="evenodd" d="M17.1529 13.4162C19.9353 9.73512 25.5001 9.73512 28.2826 11.7999C31.0651 13.8647 31.0651 17.9943 28.2826 22.1238C26.3349 25.2211 21.3266 28.3182 17.1529 30.383C12.9793 28.3182 7.97101 25.2211 6.02329 22.1238C3.24093 17.9943 3.24093 13.8647 6.02329 11.7999C8.80576 9.73512 14.3706 9.73512 17.1529 13.4162Z" fill="none" stroke-miterlimit="1.5" stroke-linecap="round" stroke-linejoin="round"/>
		<path d="M10.4689 10.4739C12.4193 10.4739 14.0004 8.94069 14.0004 7.04943C14.0004 5.15817 12.4193 3.625 10.4689 3.625C8.51858 3.625 6.9375 5.15817 6.9375 7.04943C6.9375 8.94069 8.51858 10.4739 10.4689 10.4739Z" fill="none" stroke-miterlimit="1.5" stroke-linecap="round" stroke-linejoin="round"/>
		<path d="M23.8996 10.4739C25.85 10.4739 27.4311 8.94069 27.4311 7.04943C27.4311 5.15817 25.85 3.625 23.8996 3.625C21.9492 3.625 20.3682 5.15817 20.3682 7.04943C20.3682 8.94069 21.9492 10.4739 23.8996 10.4739Z" fill="none" stroke-miterlimit="1.5" stroke-linecap="round" stroke-linejoin="round"/>
		<path d="M17.1536 18.5292C18.4887 18.5292 19.5709 17.4797 19.5709 16.1851C19.5709 14.8905 18.4887 13.8411 17.1536 13.8411C15.8186 13.8411 14.7363 14.8905 14.7363 16.1851C14.7363 17.4797 15.8186 18.5292 17.1536 18.5292Z" fill="none" stroke-miterlimit="1.5" stroke-linecap="round" stroke-linejoin="round"/>
		<path d="M21.4438 28.0227V22.9387C21.4438 20.5033 19.4079 18.5291 16.8964 18.5291H16.8961C14.3847 18.5291 12.3486 20.5033 12.3486 22.9387V27.7026" fill="none" stroke-miterlimit="1.5" stroke-linecap="round" stroke-linejoin="round"/>
	</symbol>

	<symbol xmlns="http://www.w3.org/2000/svg" id="ic_tab_info3" viewBox="0 0 34 32">
		<path fill-rule="evenodd" clip-rule="evenodd" d="M31.482 15.2499H2.94629L8.30556 7.375H26.1226L31.482 15.2499Z" fill="none" stroke-miterlimit="1.5" stroke-linecap="round" stroke-linejoin="round"/>
		<path d="M2.94629 15.25L17.2139 28.9762L31.482 15.25" fill="none" stroke-miterlimit="1.5" stroke-linecap="round" stroke-linejoin="round"/>
		<path d="M12.8189 7.375L11.5098 15.2499L17.2137 28.9761" fill="none" stroke-miterlimit="1.5" stroke-linecap="round" stroke-linejoin="round"/>
		<path d="M21.6206 7.375L22.9297 15.2499L17.2257 28.9761" fill="none" stroke-miterlimit="1.5" stroke-linecap="round" stroke-linejoin="round"/>
	</symbol>

	<symbol xmlns="http://www.w3.org/2000/svg" id="ic_tab_info4" viewBox="0 0 34 32">
		<path fill-rule="evenodd" clip-rule="evenodd" d="M22.2574 14.4878C24.5587 11.0512 29.1613 11.0512 31.4626 12.9789C33.764 14.9065 33.764 18.7618 31.4626 22.6171C29.8517 25.5086 25.7094 28.4001 22.2574 30.3278C18.8054 28.4001 14.6631 25.5086 13.0521 22.6171C10.7509 18.7618 10.7509 14.9065 13.0521 12.9789C15.3535 11.0512 19.9561 11.0512 22.2574 14.4878Z" fill="none" stroke-miterlimit="1.5" stroke-linecap="round" stroke-linejoin="round"/>
		<path d="M13.6223 23.5057C13.055 23.8546 12.4923 24.1833 11.9468 24.4879C8.49484 22.5602 4.35252 19.6688 2.74158 16.7773C0.440308 12.922 0.440308 9.06663 2.74158 7.13903C5.04294 5.21135 9.64557 5.21135 11.9468 8.64795C14.2481 5.21135 18.8507 5.21135 21.1521 7.13903C22.993 8.681 23.3613 11.4563 22.2571 14.4785" fill="none" stroke-miterlimit="1.5" stroke-linecap="round" stroke-linejoin="round"/>
	</symbol>

	<symbol xmlns="http://www.w3.org/2000/svg" id="ic_tab_adv1" viewBox="0 0 32 32">
		<path d="M16.0397 8.30777C13.5381 4.30777 11.9619 3.75536 10.63 3.71211C6.78061 3.58713 5.86932 9.90943 10.7802 9.90943H13.919C15.3292 9.94112 16.9452 6.87122 18.2458 5.25212C19.011 4.2997 19.9242 3.77747 20.8183 3.70659C25.391 3.34426 25.9332 10.0316 20.6921 9.96051H17.5381M18.7169 18.0811H26.0717V27.6279C26.0717 28.0018 25.7652 28.3078 25.3906 28.3078H18.7169M18.7169 18.0811V12.0187M18.7169 18.0811V28.3078M18.7169 28.3078H13.2823M18.7169 12.0187H13.2823M18.7169 12.0187H25.8873C26.2029 12.0187 26.4612 12.2635 26.4612 12.5626V18.0811H18.7837M13.2823 28.3078H6.65169C6.2771 28.3078 5.97057 28.0018 5.97057 27.6279V18.0811H13.2119M13.2823 28.3078V18.0808V18.0594V12.0187M13.2823 12.0187H6.11198C5.79632 12.0187 5.53809 12.2635 5.53809 12.5626V18.0811H13.1945" fill="none" stroke-width="1.5" stroke-miterlimit="22.9256" stroke-linecap="round" stroke-linejoin="round"/>
	</symbol>

	<symbol xmlns="http://www.w3.org/2000/svg" id="ic_tab_adv2" viewBox="0 0 32 32">
		<path fill-rule="evenodd" clip-rule="evenodd" d="M26.3582 12.3914C24.3612 7.36231 19.6383 3.69504 13.2465 4.82001C9.35146 5.50555 6.28906 8.43782 5.12241 11.8069C3.97185 15.1295 4.67939 18.7928 8.22746 21.1604C10.4441 22.6397 13.6447 22.3961 15.8774 21.0071C16.976 20.3237 17.7568 19.4114 18.0783 18.3981C18.3912 17.4118 18.3067 16.2155 17.4649 14.8457C16.9797 14.056 16.2947 13.5736 15.5967 13.4678C14.9312 13.3669 14.0662 13.5806 13.1264 14.568C12.7748 14.9373 12.1905 14.9517 11.8213 14.6002C11.452 14.2488 11.4376 13.6645 11.7891 13.2952C13.0509 11.9695 14.4893 11.4327 15.8734 11.6425C17.2251 11.8474 18.336 12.737 19.0379 13.8791C20.1248 15.648 20.3326 17.3975 19.838 18.9564C19.352 20.4882 18.2252 21.7208 16.8526 22.5747C14.1431 24.2603 10.1468 24.6608 7.20272 22.696C2.85375 19.7941 1.99468 15.1972 3.37788 11.2028C4.745 7.25475 8.31675 3.81313 12.9264 3.0018C20.3435 1.6964 25.8191 6.03138 28.074 11.7101C30.3172 17.3593 29.4499 24.5141 24.1 29.0139C23.7098 29.342 23.1275 29.2917 22.7993 28.9016C22.4712 28.5114 22.5215 27.9291 22.9116 27.601C27.5394 23.7087 28.3669 17.4501 26.3582 12.3914Z"/>
	</symbol>

	<symbol xmlns="http://www.w3.org/2000/svg" id="ic_tab_adv3" viewBox="0 0 32 32">
		<path fill-rule="evenodd" clip-rule="evenodd" d="M16.8271 1.05599L21.9997 9.46516L31.1025 15.2367C31.3704 15.4066 31.5324 15.7021 31.5313 16.0194C31.5303 16.3366 31.3664 16.6311 31.0973 16.7991L22.079 22.434L16.9111 30.9402C16.8082 31.2074 16.5839 31.4187 16.2956 31.4984C16.2109 31.5219 16.1252 31.5327 16.0405 31.5319C15.9519 31.5327 15.8621 31.5208 15.7738 31.4951C15.4925 31.4131 15.274 31.2056 15.172 30.9442L9.99937 22.5351L0.896566 16.7635C0.628652 16.5936 0.466731 16.2981 0.467778 15.9808C0.468826 15.6636 0.632695 15.3692 0.901723 15.2011L9.92011 9.56627L15.0875 1.06142C15.1885 0.797534 15.4082 0.587728 15.6914 0.505201C15.7797 0.479464 15.8695 0.467491 15.958 0.468305C16.0427 0.46748 16.1285 0.478333 16.2132 0.501761C16.5 0.58111 16.7236 0.790716 16.8271 1.05599ZM16.0359 28.8251L20.6151 21.288C20.6899 21.1648 20.7925 21.0608 20.9148 20.9845L28.8754 16.0106L20.8309 10.9101C20.7124 10.8349 20.6125 10.7337 20.5389 10.6141L15.9633 3.17535L11.3841 10.7122C11.3092 10.8354 11.2065 10.9394 11.0843 11.0157L3.12372 15.9896L11.1682 21.0901C11.2867 21.1653 11.3866 21.2665 11.4601 21.3861L16.0359 28.8251Z"/>
	</symbol>

	<symbol xmlns="http://www.w3.org/2000/svg" id="ic_tab_adv4" viewBox="0 0 32 32">
		<path fill-rule="evenodd" clip-rule="evenodd" d="M15.8561 5.84615C10.339 5.84615 5.84615 10.3809 5.84615 16C5.84615 21.1365 9.60228 25.3695 14.4609 26.0561C14.9164 26.1205 15.3822 26.1538 15.8561 26.1538C16.3659 26.1538 16.7791 26.5671 16.7791 27.0769C16.7791 27.5867 16.3659 28 15.8561 28C15.2954 28 14.7433 27.9606 14.2026 27.8841C8.42788 27.068 4 22.0508 4 16C4 9.38418 9.29662 4 15.8561 4C22.4488 4 26.4756 8.6728 27.6399 13.6201C28.7867 18.4927 27.219 24.1244 22.0838 25.758C21.8998 25.8165 21.5715 25.8574 21.2515 25.649C20.9633 25.4616 20.8672 25.1885 20.8345 25.0639C20.7726 24.8279 20.8018 24.596 20.8151 24.496C20.85 24.2352 20.9369 23.8913 21.0337 23.5365C21.1132 23.2455 21.2039 22.9303 21.3018 22.5905C21.4635 22.029 21.6446 21.4002 21.826 20.7018C23.3743 14.7426 15.661 11.0887 12.1014 15.5067C11.7815 15.9037 11.2004 15.9663 10.8034 15.6464C10.4065 15.3266 10.3439 14.7455 10.6638 14.3485C15.5137 8.32892 25.6439 13.3491 23.6129 21.1661C23.4289 21.8739 23.2284 22.5716 23.0599 23.1576C23.0464 23.2045 23.0332 23.2506 23.0201 23.2961C25.7339 21.541 26.7292 17.8091 25.8429 14.0431C24.8268 9.72548 21.3987 5.84615 15.8561 5.84615ZM22.6425 24.7621C22.6423 24.7718 22.6417 24.7772 22.6415 24.7775C22.6413 24.7777 22.6414 24.7729 22.6425 24.7621Z"/>
	</symbol>

	<symbol xmlns="http://www.w3.org/2000/svg" id="ic_arrows" viewBox="0 0 20 20">
		<path d="M13.389 4.39551C15.8656 5.54882 17.5816 8.04082 17.5816 10.9268C17.5816 14.9082 14.315 18.1407 10.291 18.1407" stroke-miterlimit="1.5" stroke-linecap="round" stroke-linejoin="round" fill="none"/>
		<path d="M7.4058 17.5528C4.81518 16.446 3 13.8941 3 10.9266C3 6.94494 6.26692 3.7124 10.2906 3.7124" stroke-miterlimit="1.5" stroke-linecap="round" stroke-linejoin="round" fill="none"/>
		<path d="M8.88178 5.37831L10.2903 3.71341L8.64238 2.34255" stroke-miterlimit="1.5" stroke-linecap="round" stroke-linejoin="round" fill="none"/>
		<path d="M11.7012 16.4779L10.2927 18.1428L11.9406 19.5137" stroke-miterlimit="1.5" stroke-linecap="round" stroke-linejoin="round" fill="none"/>
	</symbol>

	<symbol xmlns="http://www.w3.org/2000/svg" id="ic_close" viewBox="0 0 12 13">
		<path d="M1 1.5L10.6154 11.5" stroke-width="1.5" stroke-linecap="round"/>
		<path d="M11 1.5L1.38461 11.5" stroke-width="1.5" stroke-linecap="round"/>
	</symbol>

	<symbol xmlns="http://www.w3.org/2000/svg" id="ic_gift" viewBox="0 0 20 20">
		<path fill-rule="evenodd" clip-rule="evenodd" d="M18.2977 7.84535C18.2977 7.2041 18.0429 6.5891 17.5895 6.13568C17.1361 5.68218 16.5211 5.42743 15.8798 5.42743H4.04292C3.40167 5.42743 2.78667 5.68218 2.33317 6.13568C1.87975 6.5891 1.625 7.2041 1.625 7.84535V10.5881H18.2977V7.84535Z" stroke-miterlimit="1.5" stroke-linecap="round" stroke-linejoin="round"/>
		<path fill-rule="evenodd" clip-rule="evenodd" d="M2.92372 16.0371C2.92372 17.3724 4.00621 18.455 5.34159 18.4551C7.92513 18.4551 11.9966 18.4551 14.5802 18.4551C15.9155 18.455 16.998 17.3724 16.998 16.0371C16.998 13.7249 16.998 10.5877 16.998 10.5877L2.92372 10.5877L2.92372 16.0371Z" stroke-width="0.918877" stroke-miterlimit="1.5" stroke-linecap="round" stroke-linejoin="round"/>
		<path d="M9.96094 5.42743V18.4553" stroke-miterlimit="1.5" stroke-linecap="round" stroke-linejoin="round"/>
		<path d="M9.96167 5.42752L8.07378 2.93666C7.79336 2.56668 7.37746 2.32328 6.91761 2.25994C6.4577 2.19664 5.9915 2.31859 5.62154 2.59899C4.85109 3.18293 4.69993 4.28084 5.28384 5.05124L5.56904 5.42753" stroke-width="0.997808" stroke-miterlimit="1.5" stroke-linecap="round" stroke-linejoin="round"/>
		<path d="M9.96216 5.42752L11.85 2.93666C12.1305 2.56668 12.5464 2.32328 13.0062 2.25994C13.4661 2.19664 13.9323 2.31859 14.3023 2.59899C15.0727 3.18293 15.2239 4.28084 14.64 5.05124L14.3548 5.42753" stroke-width="0.997808" stroke-miterlimit="1.5" stroke-linecap="round" stroke-linejoin="round"/>
	</symbol>

	<symbol xmlns="http://www.w3.org/2000/svg" id="ic_delete" viewBox="0 0 36 36">
		<path d="M9.90039 11.7L26.1004 11.7" stroke-miterlimit="1.5" stroke-linecap="round" stroke-linejoin="round"/>
		<path d="M11.2812 11.8817C11.2812 11.8817 11.8053 20.7278 12.0476 24.8185C12.1152 25.9588 13.0597 26.849 14.202 26.849C16.1462 26.849 19.0612 26.849 21.0053 26.849C22.1477 26.849 23.0921 25.9588 23.1597 24.8185C23.402 20.7278 23.9261 11.8817 23.9261 11.8817" stroke-miterlimit="1.5" stroke-linecap="round" stroke-linejoin="round"/>
		<path d="M15.7246 15.1074V23.8383" stroke-miterlimit="1.5" stroke-linecap="round" stroke-linejoin="round"/>
		<path d="M19.4805 15.1074V23.8383" stroke-miterlimit="1.5" stroke-linecap="round" stroke-linejoin="round"/>
		<path d="M14.8496 10.9816V9.51927C14.8496 8.73541 15.4851 8.09996 16.2689 8.09996H19.6237C20.4075 8.09996 21.043 8.73541 21.043 9.51927V10.9816" stroke-miterlimit="1.5" stroke-linecap="round" stroke-linejoin="round"/>
	</symbol>

	<symbol xmlns="http://www.w3.org/2000/svg" id="ic_arrow_return" viewBox="0 0 36 36">
		<path d="M6 15.4486H24.7339C26.1306 15.4486 27.47 16.0034 28.4577 16.991C29.4452 17.9786 30 19.3181 30 20.7147C30 22.1114 29.4452 23.4507 28.4577 24.4384C27.47 25.4259 26.1306 25.9807 24.7339 25.9807H13.8736" stroke-width="1.5" stroke-miterlimit="1.5" stroke-linecap="round" stroke-linejoin="round"/>
		<path d="M11.5337 10L6 15.4486L11.3633 20.8971" stroke-width="1.5" stroke-miterlimit="1.5" stroke-linecap="round" stroke-linejoin="round"/>
	</symbol>

	<symbol xmlns="http://www.w3.org/2000/svg" id="ic_exit" viewBox="0 0 24 24">
		<path d="M7.59961 12H21.9996" stroke-miterlimit="10" stroke-linecap="round" stroke-linejoin="round"/>
		<path d="M11.9 0.799988H4.5C3.1 0.799988 2 1.89999 2 3.19999V20.7C2 22.1 3.1 23.2 4.5 23.2H11.9" stroke-miterlimit="10" stroke-linecap="round" stroke-linejoin="round"/>
		<path d="M18.1992 8.19998L21.9992 12L18.1992 15.8" stroke-miterlimit="10" stroke-linecap="round" stroke-linejoin="round"/>
	</symbol>

	<symbol xmlns="http://www.w3.org/2000/svg" id="ic_copy" viewBox="0 0 15 15">
		<path d="M12.5 6.125H6.875C6.18464 6.125 5.625 6.68464 5.625 7.375V13C5.625 13.6904 6.18464 14.25 6.875 14.25H12.5C13.1904 14.25 13.75 13.6904 13.75 13V7.375C13.75 6.68464 13.1904 6.125 12.5 6.125Z" stroke-linecap="round" stroke-linejoin="round"/>
		<path d="M3.125 9.875H2.5C2.16848 9.875 1.85054 9.7433 1.61612 9.50888C1.3817 9.27446 1.25 8.95652 1.25 8.625V3C1.25 2.66848 1.3817 2.35054 1.61612 2.11612C1.85054 1.8817 2.16848 1.75 2.5 1.75H8.125C8.45652 1.75 8.77446 1.8817 9.00888 2.11612C9.2433 2.35054 9.375 2.66848 9.375 3V3.625" stroke-linecap="round" stroke-linejoin="round"/>
	</symbol>

	<symbol xmlns="http://www.w3.org/2000/svg" id="ic_tab_brand1" viewBox="0 0 32 32">
		<path d="M4.24612 16.6247L15.4167 27.7445C16.0177 28.3428 16.8327 28.6784 17.6824 28.6786C18.5323 28.6784 19.3474 28.3426 19.9486 27.7442C24.0703 23.6412 32.3739 15.3753 32.3739 15.3753L18.9375 2L7.75699 13.1297" stroke-miterlimit="1.5" stroke-linecap="round" stroke-linejoin="round" fill="none"/>
		<path fill-rule="evenodd" clip-rule="evenodd" d="M17.3075 22.556L3.87109 9.18066L3.40097 9.64865C2.59786 10.4481 2.14691 11.5326 2.14683 12.6631C2.14667 13.7937 2.59808 14.8782 3.40108 15.6776L15.871 28.0908L15.767 27.9873C15.2477 27.4704 14.956 26.7693 14.956 26.0384C14.9561 25.3074 15.2478 24.6063 15.767 24.0894C16.5667 23.2934 17.3075 22.556 17.3075 22.556Z" stroke-miterlimit="1.5" stroke-linecap="round" stroke-linejoin="round" fill="none"/>
	</symbol>

	<symbol xmlns="http://www.w3.org/2000/svg" id="ic_tab_brand2" viewBox="0 0 32 32">
		<path fill-rule="evenodd" clip-rule="evenodd" d="M10.1084 15.9065C9.98462 16.4792 9.69822 17.0045 9.28357 17.4192C8.40218 18.3005 6.91535 19.7874 6.91535 19.7874L12.1293 25.0012C12.1293 25.0012 14.3832 22.716 15.8263 21.2521C16.5825 20.4855 17.0061 19.4519 17.0061 18.3756C17.0063 14.882 17.0059 6.89945 17.0061 3.75509C17.0062 3.40818 16.8682 3.07531 16.6235 2.83059C16.3782 2.5853 16.0453 2.44729 15.6984 2.44743C15.1697 2.44723 14.5679 2.44707 14.0678 2.44733C13.452 2.44724 12.9199 2.87727 12.7901 3.47906C12.2086 6.17489 10.651 13.3924 10.1084 15.9065Z" stroke-width="0.872803" stroke-miterlimit="1.5" stroke-linecap="round" stroke-linejoin="round" fill="none"/>
		<path fill-rule="evenodd" clip-rule="evenodd" d="M12.2654 27.1001C12.702 26.3777 12.5893 25.4505 11.9921 24.8534C10.6716 23.5328 8.37912 21.2404 7.05854 19.9198C6.46159 19.3229 5.53438 19.2102 4.81181 19.6466C3.91562 20.1882 2.71467 20.9138 1.86375 21.4277C1.61109 21.5803 1.44305 21.8406 1.40734 22.1335C1.37164 22.4265 1.47263 22.7195 1.68139 22.9283C3.40756 24.6544 7.25748 28.5043 8.98384 30.2306C9.19241 30.4392 9.48548 30.5402 9.77862 30.5047C10.0716 30.469 10.3317 30.3008 10.4842 30.0481C10.9984 29.1974 11.7239 27.9964 12.2654 27.1001Z" stroke-width="0.979333" stroke-miterlimit="1.5" stroke-linecap="round" stroke-linejoin="round" fill="none"/>
		<path fill-rule="evenodd" clip-rule="evenodd" d="M23.8994 15.9065C24.0232 16.4792 24.3096 17.0045 24.7242 17.4192C25.6056 18.3005 27.0925 19.7874 27.0925 19.7874L21.8785 25.0012C21.8785 25.0012 19.6246 22.716 18.1815 21.2521C17.4253 20.4855 17.0017 19.4519 17.0017 18.3756C17.0015 14.882 17.0019 6.89945 17.0017 3.75509C17.0016 3.40818 17.1396 3.07531 17.3843 2.83059C17.6296 2.5853 17.9625 2.44729 18.3094 2.44743C18.8381 2.44723 19.4399 2.44707 19.94 2.44733C20.5558 2.44724 21.0879 2.87727 21.2177 3.47906C21.7992 6.17489 23.3569 13.3924 23.8994 15.9065Z" stroke-width="0.872803" stroke-miterlimit="1.5" stroke-linecap="round" stroke-linejoin="round" fill="none"/>
		<path fill-rule="evenodd" clip-rule="evenodd" d="M21.7386 27.1001C21.3019 26.3777 21.4146 25.4505 22.0118 24.8534C23.3323 23.5328 25.6248 21.2404 26.9454 19.9198C27.5423 19.3229 28.4695 19.2102 29.1921 19.6466C30.0883 20.1882 31.2892 20.9138 32.1402 21.4277C32.3928 21.5803 32.5609 21.8406 32.5966 22.1335C32.6323 22.4265 32.5313 22.7195 32.3225 22.9283C30.5964 24.6544 26.7464 28.5043 25.0201 30.2306C24.8115 30.4392 24.5184 30.5402 24.2253 30.5047C23.9323 30.469 23.6722 30.3008 23.5197 30.0481C23.0055 29.1974 22.28 27.9964 21.7386 27.1001Z" stroke-width="0.979333" stroke-miterlimit="1.5" stroke-linecap="round" stroke-linejoin="round" fill="none"/>
	</symbol>

	<symbol xmlns="http://www.w3.org/2000/svg" id="ic_tab_brand3" viewBox="0 0 32 32">
		<path fill-rule="evenodd" clip-rule="evenodd" d="M26.9397 8.82682C26.9397 7.03094 25.4839 5.5752 23.6884 5.5752C19.7155 5.5752 13.0332 5.5752 9.06022 5.5752C7.26434 5.5752 5.80859 7.03094 5.80859 8.82682C5.80859 13.5724 5.80859 22.3464 5.80859 27.092C5.80859 28.8879 7.26434 30.3436 9.06022 30.3436C13.0332 30.3436 19.7155 30.3436 23.6884 30.3436C25.4839 30.3436 26.9397 28.8879 26.9397 27.092C26.9397 22.3464 26.9397 13.5724 26.9397 8.82682Z" stroke-width="0.98" stroke-miterlimit="1.5" stroke-linecap="round" stroke-linejoin="round" fill="none"/>
		<path fill-rule="evenodd" clip-rule="evenodd" d="M13.1992 30.344H9.79297V31.2969C9.79297 31.7485 9.9724 32.1818 10.2918 32.5012C10.6112 32.8206 11.0445 33 11.4961 33C11.9477 33 12.381 32.8206 12.7004 32.5012C13.0198 32.1818 13.1992 31.7485 13.1992 31.2969C13.1992 30.7789 13.1992 30.344 13.1992 30.344Z" stroke-width="0.98" stroke-miterlimit="1.5" stroke-linecap="round" stroke-linejoin="round" fill="none"/>
		<path d="M21.4976 1H11.25V5.57616H21.4976V1Z" stroke-width="0.91069" stroke-miterlimit="1.5" stroke-linecap="round" stroke-linejoin="round" fill="none"/>
		<path d="M9.79297 1H22.9565" stroke-width="0.928494" stroke-miterlimit="1.5" stroke-linecap="round" stroke-linejoin="round" fill="none"/>
		<path d="M11.3203 10.7852V25.2767" stroke-width="0.98" stroke-miterlimit="1.5" stroke-linecap="round" stroke-linejoin="round" fill="none"/>
		<path d="M16.375 10.7852V25.2767" stroke-width="0.98" stroke-miterlimit="1.5" stroke-linecap="round" stroke-linejoin="round" fill="none"/>
		<path d="M21.4258 10.7852V25.2767" stroke-width="0.98" stroke-miterlimit="1.5" stroke-linecap="round" stroke-linejoin="round" fill="none"/>
		<path fill-rule="evenodd" clip-rule="evenodd" d="M22.957 30.3438H19.5508V31.2966C19.5508 31.7482 19.7302 32.1815 20.0496 32.5009C20.369 32.8203 20.8023 32.9997 21.2539 32.9997C21.7055 32.9997 22.1388 32.8203 22.4582 32.5009C22.7776 32.1815 22.957 31.7482 22.957 31.2966C22.957 30.7787 22.957 30.3438 22.957 30.3438Z" stroke-width="0.98" stroke-miterlimit="1.5" stroke-linecap="round" stroke-linejoin="round" fill="none"/>
	</symbol>

	<symbol xmlns="http://www.w3.org/2000/svg" id="ic_tab_brand4" viewBox="0 0 32 32">
		<path d="M20.0817 10.9116C20.9824 12.4192 21.5004 14.181 21.5004 16.0627C21.5004 21.6166 16.9914 26.1256 11.4375 26.1256C5.88361 26.1256 1.375 21.6166 1.375 16.0627C1.375 10.5092 5.88361 6.00024 11.4375 6.00024C12.3268 6.00024 13.1891 6.11582 14.0107 6.33286" stroke-width="0.979891" stroke-miterlimit="1.5" stroke-linecap="round" stroke-linejoin="round" fill="none"/>
		<path d="M14.7086 21.2806C13.7828 19.7585 13.25 17.9724 13.25 16.0625C13.25 10.509 17.7586 6 23.3125 6C28.8664 6 33.3754 10.509 33.3754 16.0625C33.3754 21.6163 28.8664 26.1253 23.3125 26.1253C22.4443 26.1253 21.6016 26.0153 20.7976 25.808" stroke-width="0.979891" stroke-miterlimit="1.5" stroke-linecap="round" stroke-linejoin="round" fill="none"/>
	</symbol>
</svg>