<svg width="0" height="0">
	<symbol xmlns="http://www.w3.org/2000/svg" id="rings" viewBox="0 0 21 15">
		<circle cx="8.02637" cy="7.5" r="7" fill="none"/>
		<circle cx="13.0264" cy="7.5" r="7" fill="none"/>
	</symbol>

	<symbol xmlns="http://www.w3.org/2000/svg" id="lupa" viewBox="0 0 17 17">
		<path d="M16 16L12.4167 12.4167M14.3333 7.66667C14.3333 11.3486 11.3486 14.3333 7.66667 14.3333C3.98477 14.3333 1 11.3486 1 7.66667C1 3.98477 3.98477 1 7.66667 1C11.3486 1 14.3333 3.98477 14.3333 7.66667Z" fill="none" stroke-linecap="round" stroke-linejoin="round"/>
	</symbol>

	<symbol xmlns="http://www.w3.org/2000/svg" id="user" viewBox="0 0 15 17">
		<path d="M7.5 9.33333C9.22391 9.33333 10.8772 10.0357 12.0962 11.286C13.3152 12.5362 14 14.2319 14 16H1C1 14.2319 1.68482 12.5362 2.90381 11.286C4.12279 10.0357 5.77609 9.33333 7.5 9.33333ZM7.5 9.33333C9.74366 9.33333 11.5625 7.46785 11.5625 5.16667C11.5625 2.86548 9.74366 1 7.5 1C5.25634 1 3.4375 2.86548 3.4375 5.16667C3.4375 7.46785 5.25634 9.33333 7.5 9.33333Z" fill="none" stroke-linecap="round" stroke-linejoin="round"/>
	</symbol>

	<symbol xmlns="http://www.w3.org/2000/svg" id="favorite" viewBox="0 0 19 17">
		<path d="M15.45 10.1667C16.7165 8.95 18 7.49167 18 5.58333C18 4.36776 17.5075 3.20197 16.6307 2.34243C15.754 1.48289 14.5649 1 13.325 1C11.829 1 10.775 1.41667 9.5 2.66667C8.225 1.41667 7.171 1 5.675 1C4.43511 1 3.24601 1.48289 2.36928 2.34243C1.49254 3.20197 1 4.36776 1 5.58333C1 7.5 2.275 8.95833 3.55 10.1667L9.5 16L15.45 10.1667Z" fill="none" stroke-linecap="round" stroke-linejoin="round"/>
	</symbol>

	<symbol xmlns="http://www.w3.org/2000/svg" id="cart" viewBox="0 0 16 17">
		<path d="M3.625 5.16667L4.5 4.47222C4.5 3.77778 4.86875 2.33453 5.52513 1.81359C6.1815 1.29266 7.07174 1 8 1C8.92826 1 9.8185 1.29266 10.4749 1.81359C11.1313 2.33453 11.5 3.77778 11.5 4.47222L12.375 5.16667M1 4.33333V14.5417C1 14.9284 1.16389 15.2994 1.45561 15.5729C1.74733 15.8464 2.143 16 2.55556 16H13.4444C13.857 16 14.2527 15.8464 14.5444 15.5729C14.8361 15.2994 15 14.9284 15 14.5417V4.33333H1Z" fill="none" stroke-linecap="round" stroke-linejoin="round"/>
	</symbol>

	<symbol xmlns="http://www.w3.org/2000/svg" id="ic_soc1" viewBox="0 0 30 30">
		<path d="M15 3.51807C8.37284 3.51807 3 8.89091 3 15.5181C3 17.9428 3.72099 20.2045 4.96049 22.0909L3.41481 27.3255L8.85185 25.8193C10.6494 26.8958 12.7531 27.5131 15 27.5131C21.6272 27.5131 27 22.1403 27 15.5131C27 8.89091 21.6272 3.51807 15 3.51807Z"/>
		<path d="M21.5922 18.8115C21.5774 18.6535 21.4835 18.5152 21.3403 18.451C20.3724 18.0066 19.3996 17.5622 18.4317 17.1177C18.323 17.0683 18.1897 17.093 18.1107 17.1868L16.7971 18.6683C16.6934 18.7868 16.5304 18.8264 16.3872 18.7671C15.7058 18.4856 14.7872 18.0115 13.8588 17.2115C12.7477 16.2585 12.0959 15.2362 11.7304 14.5696C11.9132 14.4461 12.4119 14.0757 12.6342 13.3893C12.6342 13.3844 12.6391 13.3794 12.6391 13.3794C12.7774 12.9548 12.7477 12.4955 12.5946 12.0757C12.3329 11.3794 11.8095 10.0313 11.607 9.82389C11.5724 9.78932 11.5329 9.75475 11.5329 9.75475C11.3848 9.62142 11.1922 9.54734 10.9897 9.53747C10.9206 9.53253 10.8465 9.53253 10.7675 9.53253C10.5403 9.52759 10.3379 9.52759 10.1897 9.54734C9.76995 9.6066 9.46378 9.88808 9.27119 10.1251C9.03909 10.4066 8.76255 10.8264 8.57983 11.3794C8.56502 11.4288 8.5502 11.4733 8.53539 11.5227C8.33292 12.2239 8.37242 12.9745 8.6144 13.6659C8.84156 14.3128 9.17242 15.0831 9.67119 15.898C10.5156 17.2856 11.4342 18.1449 12.0564 18.7128C12.7576 19.3597 13.6267 20.1548 15.0045 20.8165C16.2786 21.4288 17.4342 21.656 18.2095 21.7498C18.5255 21.7794 19.1082 21.7844 19.7749 21.5325C20.0811 21.414 20.3379 21.2708 20.5453 21.1177C21.0934 20.7276 21.4786 20.1399 21.5774 19.4782C21.5774 19.4733 21.5774 19.4683 21.5774 19.4634C21.6119 19.2115 21.607 18.9943 21.5922 18.8115Z" fill="white"/>
	</symbol>

	<symbol xmlns="http://www.w3.org/2000/svg" id="ic_soc2" viewBox="0 0 30 30">
		<path d="M28.0408 6.52126L24.0823 25.1898C23.7836 26.5074 23.0048 26.8352 21.898 26.2146L15.8665 21.7699L12.9562 24.5691C12.6343 24.8911 12.3648 25.1606 11.7441 25.1606L12.1774 19.0177L23.3562 8.91628C23.8422 8.483 23.2508 8.24287 22.6008 8.67621L8.78102 17.378L2.83147 15.5159C1.53733 15.1118 1.51395 14.2217 3.1008 13.601L26.3719 4.6357C27.4493 4.23168 28.3922 4.87572 28.0408 6.52126Z"/>
	</symbol>

	<symbol xmlns="http://www.w3.org/2000/svg" id="ic_soc3" viewBox="0 0 30 30">
		<path d="M28.8621 8.2654H24.1561C23.964 8.26539 23.7756 8.3192 23.6107 8.42107C23.4459 8.52295 23.3109 8.66909 23.22 8.84395C23.22 8.84395 21.3431 12.4151 20.7402 13.6179C19.1183 16.8537 18.068 15.8379 18.068 14.3361V9.15809C18.068 8.7254 17.9017 8.31043 17.6055 8.00446C17.3094 7.6985 16.9077 7.52662 16.4889 7.52662H12.9507C12.4688 7.4896 11.9858 7.58047 11.5475 7.79059C11.1092 8.0007 10.7302 8.32309 10.4464 8.72713C10.4464 8.72713 12.2431 8.42701 12.2431 10.9281C12.2431 11.5483 12.274 13.3324 12.3022 14.8288C12.3075 15.0494 12.2472 15.2662 12.1294 15.4502C12.0116 15.6342 11.842 15.7764 11.6435 15.8577C11.445 15.9389 11.2272 15.9553 11.0194 15.9045C10.8116 15.8538 10.6239 15.7384 10.4816 15.574C9.03332 13.493 7.83368 11.2388 6.90872 8.86056C6.82928 8.68265 6.70212 8.53201 6.54231 8.42652C6.38251 8.32103 6.19677 8.26511 6.00713 8.2654C4.98656 8.2654 2.9443 8.2654 1.73147 8.2654C1.61386 8.26457 1.49782 8.29325 1.39331 8.34898C1.28879 8.40471 1.19894 8.48582 1.13146 8.58534C1.06399 8.68486 1.02091 8.79982 1.00592 8.92034C0.990936 9.04086 1.00449 9.16333 1.04543 9.27724C2.34373 12.9565 7.93637 24.5186 14.3198 24.5186H17.0066C17.2881 24.5186 17.5581 24.403 17.7572 24.1974C17.9562 23.9917 18.068 23.7128 18.068 23.4219V21.7458C18.0681 21.5355 18.1276 21.3299 18.2393 21.1541C18.3511 20.9784 18.5102 20.8403 18.697 20.7568C18.8838 20.6733 19.0901 20.6481 19.2906 20.6843C19.4911 20.7205 19.6769 20.8165 19.8253 20.9605L23.0412 24.0821C23.33 24.3625 23.7114 24.5185 24.1077 24.5186H28.3307C30.3675 24.5186 30.3675 23.0584 29.257 21.9285C28.4755 21.1333 25.6554 18.0623 25.6554 18.0623C25.4139 17.8038 25.2698 17.4646 25.2493 17.1059C25.2287 16.7473 25.333 16.3929 25.5433 16.1068C26.4548 14.8675 27.9458 12.8388 28.5781 11.9697C29.4424 10.7819 31.0066 8.2654 28.8621 8.2654Z"/>
	</symbol>

	<symbol xmlns="http://www.w3.org/2000/svg" id="ic_play" viewBox="0 0 26 26">
		<rect width="26" height="26" rx="13"/>
		<path d="M17.5 13L10.75 18.6292L10.75 7.37083L17.5 13Z" fill="white"/>
	</symbol>

	<symbol xmlns="http://www.w3.org/2000/svg" id="ic_arrow" viewBox="0 0 9 14">
		<path d="M1.6001 1L7.6001 7L1.6001 13" stroke-width="1.5" stroke-linecap="round" fill="none"/>
	</symbol>

	<symbol xmlns="http://www.w3.org/2000/svg" id="ic_tab_info1" viewBox="0 0 34 32">
		<path d="M28.0202 19.6984C25.7744 22.8788 21.1262 25.9849 17.203 28.1093C12.9582 25.8107 7.86443 22.3629 5.88349 18.915C5.48695 18.2707 5.14587 17.6263 4.86035 16.9883" fill="none" stroke-miterlimit="1.5" stroke-linecap="round" stroke-linejoin="round"/>
		<path d="M3.97366 14.2949C3.38356 11.445 4.02005 8.93534 5.88311 7.42214C8.71305 5.12354 14.3728 5.12354 17.2026 9.2214C20.0324 5.12354 25.6922 5.12354 28.5221 7.42214C30.9554 9.3985 31.2965 13.0742 29.5453 16.9882" fill="none" stroke-miterlimit="1.5" stroke-linecap="round" stroke-linejoin="round"/>
		<path d="M4.86035 16.9882H9.84325L11.0952 15.1635L13.2625 18.8375L16.2513 12.729L18.2397 21.3471L21.1953 15.1073L23.3587 19.0702L24.7523 16.9882H29.5457" fill="none" stroke-miterlimit="1.5" stroke-linecap="round" stroke-linejoin="round"/>
	</symbol>

	<symbol xmlns="http://www.w3.org/2000/svg" id="ic_tab_info2" viewBox="0 0 34 32">
		<path fill-rule="evenodd" clip-rule="evenodd" d="M17.1529 13.4162C19.9353 9.73512 25.5001 9.73512 28.2826 11.7999C31.0651 13.8647 31.0651 17.9943 28.2826 22.1238C26.3349 25.2211 21.3266 28.3182 17.1529 30.383C12.9793 28.3182 7.97101 25.2211 6.02329 22.1238C3.24093 17.9943 3.24093 13.8647 6.02329 11.7999C8.80576 9.73512 14.3706 9.73512 17.1529 13.4162Z" fill="none" stroke-miterlimit="1.5" stroke-linecap="round" stroke-linejoin="round"/>
		<path d="M10.4689 10.4739C12.4193 10.4739 14.0004 8.94069 14.0004 7.04943C14.0004 5.15817 12.4193 3.625 10.4689 3.625C8.51858 3.625 6.9375 5.15817 6.9375 7.04943C6.9375 8.94069 8.51858 10.4739 10.4689 10.4739Z" fill="none" stroke-miterlimit="1.5" stroke-linecap="round" stroke-linejoin="round"/>
		<path d="M23.8996 10.4739C25.85 10.4739 27.4311 8.94069 27.4311 7.04943C27.4311 5.15817 25.85 3.625 23.8996 3.625C21.9492 3.625 20.3682 5.15817 20.3682 7.04943C20.3682 8.94069 21.9492 10.4739 23.8996 10.4739Z" fill="none" stroke-miterlimit="1.5" stroke-linecap="round" stroke-linejoin="round"/>
		<path d="M17.1536 18.5292C18.4887 18.5292 19.5709 17.4797 19.5709 16.1851C19.5709 14.8905 18.4887 13.8411 17.1536 13.8411C15.8186 13.8411 14.7363 14.8905 14.7363 16.1851C14.7363 17.4797 15.8186 18.5292 17.1536 18.5292Z" fill="none" stroke-miterlimit="1.5" stroke-linecap="round" stroke-linejoin="round"/>
		<path d="M21.4438 28.0227V22.9387C21.4438 20.5033 19.4079 18.5291 16.8964 18.5291H16.8961C14.3847 18.5291 12.3486 20.5033 12.3486 22.9387V27.7026" fill="none" stroke-miterlimit="1.5" stroke-linecap="round" stroke-linejoin="round"/>
	</symbol>

	<symbol xmlns="http://www.w3.org/2000/svg" id="ic_tab_info3" viewBox="0 0 34 32">
		<path fill-rule="evenodd" clip-rule="evenodd" d="M31.482 15.2499H2.94629L8.30556 7.375H26.1226L31.482 15.2499Z" fill="none" stroke-miterlimit="1.5" stroke-linecap="round" stroke-linejoin="round"/>
		<path d="M2.94629 15.25L17.2139 28.9762L31.482 15.25" fill="none" stroke-miterlimit="1.5" stroke-linecap="round" stroke-linejoin="round"/>
		<path d="M12.8189 7.375L11.5098 15.2499L17.2137 28.9761" fill="none" stroke-miterlimit="1.5" stroke-linecap="round" stroke-linejoin="round"/>
		<path d="M21.6206 7.375L22.9297 15.2499L17.2257 28.9761" fill="none" stroke-miterlimit="1.5" stroke-linecap="round" stroke-linejoin="round"/>
	</symbol>

	<symbol xmlns="http://www.w3.org/2000/svg" id="ic_tab_info4" viewBox="0 0 34 32">
		<path fill-rule="evenodd" clip-rule="evenodd" d="M22.2574 14.4878C24.5587 11.0512 29.1613 11.0512 31.4626 12.9789C33.764 14.9065 33.764 18.7618 31.4626 22.6171C29.8517 25.5086 25.7094 28.4001 22.2574 30.3278C18.8054 28.4001 14.6631 25.5086 13.0521 22.6171C10.7509 18.7618 10.7509 14.9065 13.0521 12.9789C15.3535 11.0512 19.9561 11.0512 22.2574 14.4878Z" fill="none" stroke-miterlimit="1.5" stroke-linecap="round" stroke-linejoin="round"/>
		<path d="M13.6223 23.5057C13.055 23.8546 12.4923 24.1833 11.9468 24.4879C8.49484 22.5602 4.35252 19.6688 2.74158 16.7773C0.440308 12.922 0.440308 9.06663 2.74158 7.13903C5.04294 5.21135 9.64557 5.21135 11.9468 8.64795C14.2481 5.21135 18.8507 5.21135 21.1521 7.13903C22.993 8.681 23.3613 11.4563 22.2571 14.4785" fill="none" stroke-miterlimit="1.5" stroke-linecap="round" stroke-linejoin="round"/>
	</symbol>
</svg>